<?xml version="1.0" encoding="UTF-8"?>
<svg version="1.1" xmlns="http://www.w3.org/2000/svg" width="55" height="55">
<path d="M0 0 C0.66 0 1.32 0 2 0 C2.20625 0.78375 2.4125 1.5675 2.625 2.375 C3.80676612 5.30916286 3.80676612 5.30916286 7.125 6.3125 C8.07375 6.539375 9.0225 6.76625 10 7 C10 7.66 10 8.32 10 9 C9.01 9.495 9.01 9.495 8 10 C10.31 10 12.62 10 15 10 C11.19852941 21.64705882 11.19852941 21.64705882 9 27 C6.56283785 28.21858107 4.96725943 28.12925575 2.24609375 28.1328125 C1.30958984 28.13410156 0.37308594 28.13539062 -0.59179688 28.13671875 C-1.57212891 28.13285156 -2.55246094 28.12898438 -3.5625 28.125 C-5.03879883 28.13080078 -5.03879883 28.13080078 -6.54492188 28.13671875 C-7.48013672 28.13542969 -8.41535156 28.13414063 -9.37890625 28.1328125 C-10.2407251 28.13168457 -11.10254395 28.13055664 -11.99047852 28.12939453 C-14 28 -14 28 -15 27 C-15.09880797 25.52347336 -15.13079245 24.04232764 -15.1328125 22.5625 C-15.13410156 21.66789062 -15.13539062 20.77328125 -15.13671875 19.8515625 C-15.13091797 18.44003906 -15.13091797 18.44003906 -15.125 17 C-15.12886719 16.05898438 -15.13273438 15.11796875 -15.13671875 14.1484375 C-15.13542969 13.25382812 -15.13414063 12.35921875 -15.1328125 11.4375 C-15.13112061 10.19806641 -15.13112061 10.19806641 -15.12939453 8.93359375 C-15 7 -15 7 -14 6 C-11.98405418 5.76572222 -9.961526 5.58663876 -7.9375 5.4375 C-6.83277344 5.35371094 -5.72804688 5.26992188 -4.58984375 5.18359375 C-3.30787109 5.09271484 -3.30787109 5.09271484 -2 5 C-1.34 3.35 -0.68 1.7 0 0 Z M-8 12 C-8 12.66 -8 13.32 -8 14 C-5.36 14 -2.72 14 0 14 C0.33 13.34 0.66 12.68 1 12 C-1.97 12 -4.94 12 -8 12 Z M-8 19 C-8 19.99 -8 20.98 -8 22 C-6.35 21.67 -4.7 21.34 -3 21 C-3 20.34 -3 19.68 -3 19 C-4.65 19 -6.3 19 -8 19 Z " fill="#162F43" transform="translate(29,12)"/>
<path d="M0 0 C5.28 0.33 10.56 0.66 16 1 C12 13 12 13 10 14 C7.6670134 14.04022391 5.33293334 14.04320247 3 14 C2 11 2 11 2 8 C2.66 8 3.32 8 4 8 C4 7.34 4 6.68 4 6 C2.68 6.33 1.36 6.66 0 7 C-0.93423645 3.98968256 -1.04449911 3.13349732 0 0 Z " fill="#1C3345" transform="translate(26,26)"/>
<path d="M0 0 C2.31 0 4.62 0 7 0 C6.67 2.31 6.34 4.62 6 7 C3.36 7 0.72 7 -2 7 C-1.34 4.69 -0.68 2.38 0 0 Z " fill="#152E42" transform="translate(32,32)"/>
<path d="M0 0 C0.66 0 1.32 0 2 0 C2.309375 1.175625 2.309375 1.175625 2.625 2.375 C3.80676612 5.30916286 3.80676612 5.30916286 7.125 6.3125 C8.07375 6.539375 9.0225 6.76625 10 7 C10 7.66 10 8.32 10 9 C8.35 9 6.7 9 5 9 C5 9.66 5 10.32 5 11 C3.68 11 2.36 11 1 11 C1 9.68 1 8.36 1 7 C-0.32 6.67 -1.64 6.34 -3 6 C-2.34 5.34 -1.68 4.68 -1 4 C-0.3574765 1.93125966 -0.3574765 1.93125966 0 0 Z " fill="#E2AC31" transform="translate(29,12)"/>
<path d="M0 0 C0.33 0.66 0.66 1.32 1 2 C0.0625 4.625 0.0625 4.625 -1 7 C0.98 7 2.96 7 5 7 C5 7.33 5 7.66 5 8 C2.69 8 0.38 8 -2 8 C-3 5 -3 5 -3 2 C-2.01 1.34 -1.02 0.68 0 0 Z " fill="#293A4A" transform="translate(31,32)"/>
<path d="M0 0 C0.99 0 1.98 0 3 0 C3 0.66 3 1.32 3 2 C1.68 2.33 0.36 2.66 -1 3 C-0.67 2.01 -0.34 1.02 0 0 Z " fill="#EEB640" transform="translate(34,14)"/>
<path d="M0 0 C0.99 0.33 1.98 0.66 3 1 C3 1.66 3 2.32 3 3 C2.01 2.67 1.02 2.34 0 2 C0 1.34 0 0.68 0 0 Z " fill="#EEB52F" transform="translate(24,14)"/>
</svg>
