<?xml version="1.0" encoding="UTF-8"?>
<svg version="1.1" xmlns="http://www.w3.org/2000/svg" width="1024" height="1024">
<path d="M0 0 C1.06347656 0.81597656 1.06347656 0.81597656 2.1484375 1.6484375 C12.36860012 9.92959694 18.61919214 20.75620366 23 33 C23.3403125 33.9178125 23.680625 34.835625 24.03125 35.78125 C29.25839354 52.62426808 26.89475092 71.63399441 19.40234375 87.3515625 C18.00535094 89.9533329 16.52935477 92.47499491 15 95 C14.31980918 96.32648508 13.64817155 97.65757836 13 99 C14.485 98.505 14.485 98.505 16 98 C18.84437784 97.94784328 21.6578343 97.95350232 24.5 98.015625 C25.74813477 98.04036896 25.74813477 98.04036896 27.02148438 98.06561279 C28.78001422 98.10308709 30.53848096 98.14363029 32.296875 98.18701172 C34.98950941 98.24975555 37.68195617 98.29118281 40.375 98.33203125 C42.08336392 98.3710798 43.79169931 98.41140164 45.5 98.453125 C46.30630859 98.46265198 47.11261719 98.47217896 47.94335938 98.48199463 C53.58836511 98.65506978 53.58836511 98.65506978 55.6855011 100.41236877 C57.29835673 102.3603506 57.78051558 103.47377738 58 106 C55.33077825 114.94133299 50.40506531 123.39930096 46.1875 131.6875 C44.93718854 134.15999347 43.69053221 136.63431372 42.4453125 139.109375 C41.99198296 140.00981789 41.99198296 140.00981789 41.52949524 140.92845154 C39.12112891 145.72626957 36.81431416 150.56469358 34.5625 155.4375 C23.35158333 179.5394996 23.35158333 179.5394996 13.94771194 183.38814163 C10.70830708 184.40577516 7.48336676 184.41747593 4.12451172 184.38818359 C3.37074249 184.39344055 2.61697327 184.39869751 1.84036255 184.40411377 C-0.63007853 184.41722665 -3.09986585 184.40860887 -5.5703125 184.3984375 C-7.29711022 184.40046032 -9.0239071 184.4033735 -10.7507019 184.40713501 C-14.36008888 184.41154618 -17.96925238 184.40516477 -21.57861328 184.39111328 C-26.19999473 184.3739963 -30.82085441 184.38388597 -35.44221687 184.40183067 C-39.00418011 184.41267929 -42.56601992 184.40921768 -46.12798691 184.4014473 C-47.83200009 184.3994496 -49.53602457 184.40188942 -51.24002457 184.40888596 C-53.62141823 184.41652117 -56.00196972 184.40486912 -58.38330078 184.38818359 C-59.08368469 184.39425629 -59.7840686 184.40032898 -60.50567627 184.40658569 C-64.82073223 184.35069032 -67.59428952 183.69220193 -71 181 C-72.58703002 177.08985039 -72.46847201 175.22008886 -70.95703125 171.28369141 C-69.40154767 168.06586295 -67.72917788 164.94033255 -66 161.8125 C-65.43410156 160.75224609 -64.86820313 159.69199219 -64.28515625 158.59960938 C-60.83148234 152.17389636 -57.18863634 145.88623844 -53.3828125 139.6628418 C-52.02267646 137.04366739 -51.50303179 134.88287955 -51 132 C-50.02345496 130.97708271 -49.02094185 129.97861011 -48 129 C-47.06256333 127.1766044 -46.19139252 125.31820792 -45.375 123.4375 C-44.94960938 122.46683594 -44.52421875 121.49617187 -44.0859375 120.49609375 C-43.72757813 119.67238281 -43.36921875 118.84867188 -43 118 C-41.68164112 115.36328224 -39.84594783 113.29345034 -38 111 C-37.34 110.01 -36.68 109.02 -36 108 C-41.34902924 107.40801257 -46.60884846 106.85812759 -52 107 C-52 107.33 -52 107.66 -52 108 C-56.8957825 108 -61.79149741 107.99691358 -66.68727112 107.98654175 C-86.27985876 107.94606817 -105.87243829 107.91595896 -125.46505833 107.89637566 C-135.53132868 107.88604555 -145.59756794 107.87194463 -155.66381836 107.84912109 C-164.44432261 107.82922267 -173.22480434 107.81629246 -182.0053305 107.81182301 C-186.65442092 107.8092106 -191.30344678 107.80304966 -195.95251656 107.78853989 C-200.32157644 107.77501242 -204.69054489 107.77076749 -209.05962372 107.77378464 C-210.66651086 107.77323239 -212.27340092 107.7692275 -213.88027 107.76158905 C-216.06686487 107.75170046 -218.25311028 107.75400846 -220.43971252 107.75949097 C-222.2783756 107.75672559 -222.2783756 107.75672559 -224.15418339 107.75390434 C-227.13301734 107.70397935 -227.13301734 107.70397935 -229 110 C-230.41994859 115.60871231 -230.16174873 121.41647836 -230.16796875 127.1640625 C-230.17129715 128.23369232 -230.17462555 129.30332214 -230.17805481 130.40536499 C-230.18310427 132.65956188 -230.18546375 134.91376621 -230.18530273 137.16796875 C-230.18749677 140.61991568 -230.20569423 144.07154673 -230.22460938 147.5234375 C-230.22754217 149.71614474 -230.22952773 151.9088535 -230.23046875 154.1015625 C-230.24124702 155.65008408 -230.24124702 155.65008408 -230.25224304 157.22988892 C-230.2476281 158.67191177 -230.2476281 158.67191177 -230.24291992 160.14306641 C-230.24434494 160.98656647 -230.24576996 161.83006653 -230.24723816 162.6991272 C-229.97138211 165.26632667 -229.43071916 166.85335329 -228 169 C-224.9810037 170.0063321 -223.01177021 170.11647638 -219.85820007 170.10006714 C-218.79414948 170.09710632 -217.73009888 170.09414551 -216.63380432 170.09109497 C-215.46647263 170.08278656 -214.29914093 170.07447815 -213.09643555 170.06591797 C-211.86693176 170.06124512 -210.63742798 170.05657227 -209.3706665 170.05175781 C-206.69585216 170.04124135 -204.02110665 170.0289668 -201.3463192 170.01403427 C-197.11442277 169.99096753 -192.8825311 169.97766592 -188.65058899 169.96633911 C-176.61636329 169.93290932 -164.58220699 169.89132774 -152.5480957 169.82861328 C-145.90197509 169.79405974 -139.25590615 169.77027014 -132.60970527 169.75840485 C-129.09389131 169.75164098 -125.57829647 169.73921316 -122.06256676 169.71337509 C-118.13894543 169.68454084 -114.21547758 169.67900523 -110.29174805 169.67529297 C-109.13048904 169.6629361 -107.96923004 169.65057922 -106.77278137 169.6378479 C-99.9992066 169.65476641 -95.02151763 169.97848237 -90 175 C-87.7373935 182.48400612 -92.36832303 188.90038287 -95.80859375 195.3828125 C-96.17170151 196.07151428 -96.53480927 196.76021606 -96.90892029 197.4697876 C-98.08151681 199.69011787 -99.25890098 201.90785071 -100.4375 204.125 C-100.83817688 204.88000793 -101.23885376 205.63501587 -101.65167236 206.41290283 C-106.63048876 215.78682605 -111.6462567 225.1375255 -116.875 234.375 C-117.34349365 235.21047363 -117.8119873 236.04594727 -118.29467773 236.90673828 C-120.48981829 240.73131582 -122.52100213 244.18366839 -126 247 C-126.66 247 -127.32 247 -128 247 C-128.33 247.66 -128.66 248.32 -129 249 C-129.94875 248.95875 -130.8975 248.9175 -131.875 248.875 C-135.10244856 248.65026182 -135.10244856 248.65026182 -137 251 C-139.1640625 251.1953125 -139.1640625 251.1953125 -141.625 251.125 C-142.44226563 251.10695313 -143.25953125 251.08890625 -144.1015625 251.0703125 C-144.72804688 251.04710937 -145.35453125 251.02390625 -146 251 C-146 250.67 -146 250.34 -146 250 C-144.68 249.67 -143.36 249.34 -142 249 C-147.28 249 -152.56 249 -158 249 C-157.01 249.66 -156.02 250.32 -155 251 C-156.6396875 250.9690625 -156.6396875 250.9690625 -158.3125 250.9375 C-161.94384191 250.81455548 -161.94384191 250.81455548 -165 252 C-167.63616763 252.09679233 -170.23965907 252.13924509 -172.875 252.125 C-173.58269531 252.12886719 -174.29039062 252.13273437 -175.01953125 252.13671875 C-178.82232265 252.1296372 -182.29039589 251.79057137 -186 251 C-186.804375 251.185625 -187.60875 251.37125 -188.4375 251.5625 C-191 252 -191 252 -193.9375 250.9375 C-197.78040909 249.76109926 -199.25982623 250.72834092 -203 252 C-205.7434138 251.895631 -208.2842357 251.46823522 -211 251 C-211 250.34 -211 249.68 -211 249 C-211.763125 249.33 -212.52625 249.66 -213.3125 250 C-216 251 -216 251 -219 251 C-219 250.34 -219 249.68 -219 249 C-222.3 249.33 -225.6 249.66 -229 250 C-229.89269839 257.65182772 -230.1604448 265.1669563 -230.16796875 272.8671875 C-230.17129715 274.0643338 -230.17462555 275.2614801 -230.17805481 276.49490356 C-230.18308915 279.0076662 -230.18546422 281.52043545 -230.18530273 284.03320312 C-230.18750528 287.8842244 -230.20574167 291.73496618 -230.22460938 295.5859375 C-230.22754078 298.03385319 -230.22952727 300.48177024 -230.23046875 302.9296875 C-230.24124702 304.65625076 -230.24124702 304.65625076 -230.25224304 306.41769409 C-230.2476281 308.02053757 -230.2476281 308.02053757 -230.24291992 309.65576172 C-230.24434494 310.59378632 -230.24576996 311.53181091 -230.24723816 312.4982605 C-229.98372718 315.16466046 -229.49574244 316.78271998 -228 319 C-223.89857597 320.1218072 -219.87678697 320.10769428 -215.64453125 320.0625 C-214.39800781 320.05412109 -213.15148437 320.04574219 -211.8671875 320.03710938 C-211.20686523 320.03090576 -210.54654297 320.02470215 -209.86621094 320.01831055 C-196.73451838 319.90123055 -183.62554436 320.09552631 -170.5 320.5 C-169.71903961 320.52400879 -168.93807922 320.54801758 -168.13345337 320.57275391 C-163.75541493 320.7087922 -159.37763411 320.85144491 -155 321 C-154.67 320.34 -154.34 319.68 -154 319 C-154 319.66 -154 320.32 -154 321 C-151.65431836 321.14337961 -151.65431836 321.14337961 -149 320 C-146.99831498 317.451692 -145.56139544 314.61518718 -144.0625 311.75 C-140.6863406 305.36383565 -137.6884152 300.3442076 -131 297 C-128.21444263 296.88066461 -125.45312694 296.82162784 -122.66650391 296.80712891 C-121.80456924 296.79895142 -120.94263458 296.79077393 -120.05458069 296.78234863 C-117.19524842 296.75748556 -114.33596575 296.74097782 -111.4765625 296.7265625 C-110.5014912 296.72123882 -109.52641991 296.71591515 -108.52180099 296.71043015 C-103.36252376 296.68369678 -98.20327076 296.66432098 -93.04394531 296.64990234 C-87.70814002 296.63323843 -82.37295046 296.58844659 -77.03737831 296.5375309 C-72.94018827 296.50392252 -68.84314566 296.49233205 -64.74583054 296.48667526 C-62.77858134 296.47994686 -60.81134237 296.46468377 -58.84422684 296.44078445 C-56.09306432 296.40926208 -53.34357988 296.40907624 -50.59228516 296.41650391 C-49.77759262 296.40009857 -48.96290009 296.38369324 -48.1235199 296.36679077 C-44.18313664 296.4104094 -42.39671509 296.6316944 -39.46034241 299.35778809 C-38 302 -38 302 -38.04223633 304.85888672 C-39.15416922 308.50561846 -40.62694235 311.85678863 -42.32421875 315.2578125 C-42.66226532 315.95044189 -43.00031189 316.64307129 -43.34860229 317.35668945 C-44.45405965 319.6165652 -45.57060792 321.87075678 -46.6875 324.125 C-47.45949557 325.69746312 -48.23089239 327.27022033 -49.00170898 328.84326172 C-54.37387813 339.7874322 -59.82235601 350.69401415 -65.3034668 361.58398438 C-68.47044687 367.88737254 -71.54308807 374.22065192 -74.5 380.625 C-83.40819481 399.71989116 -83.40819481 399.71989116 -92 404 C-97.11544095 405.11743065 -102.09244545 405.14567744 -107.2989502 405.14044189 C-108.69073951 405.14489858 -108.69073951 405.14489858 -110.11064577 405.1494453 C-113.21504908 405.15810656 -116.3194137 405.15963834 -119.42382812 405.16113281 C-121.65140363 405.16576265 -123.87897833 405.17078753 -126.10655212 405.17617798 C-132.15392719 405.1892843 -138.20129116 405.19574299 -144.24867821 405.20018864 C-148.02610295 405.203121 -151.80352466 405.20722603 -155.58094788 405.21169281 C-166.04506011 405.22379559 -176.50917056 405.23418076 -186.97328949 405.2375679 C-187.64221715 405.23778747 -188.3111448 405.23800703 -189.00034299 405.23823325 C-189.67083483 405.23845153 -190.34132667 405.23866981 -191.03213644 405.2388947 C-192.39072768 405.23933816 -193.74931892 405.23978473 -195.10791016 405.24023438 C-196.11876418 405.24056652 -196.11876418 405.24056652 -197.15003949 405.24090537 C-208.07729839 405.2448561 -219.00449072 405.26232169 -229.93172389 405.2855939 C-241.15748709 405.30930862 -252.38321802 405.32151172 -263.60901022 405.32293582 C-269.90922483 405.3239849 -276.20934539 405.32991532 -282.50953674 405.34775543 C-288.4324035 405.36420187 -294.35510512 405.36640826 -300.27798653 405.35761642 C-302.45242822 405.35684433 -304.62687868 405.36121138 -306.80129814 405.37107468 C-309.76807996 405.383744 -312.73427239 405.3779446 -315.7010498 405.36749268 C-316.99356305 405.37957728 -316.99356305 405.37957728 -318.31218767 405.39190602 C-323.27007745 405.35101408 -326.72746719 404.79570826 -331 402 C-335.63876527 395.04185209 -334.14505881 384.25833972 -334.12939453 376.12719727 C-334.13111853 374.97627657 -334.13284252 373.82535587 -334.13461876 372.63955879 C-334.1382115 369.45723735 -334.13727743 366.27495666 -334.13419914 363.09263587 C-334.13230447 360.32404371 -334.13404799 357.55545817 -334.13576198 354.78686625 C-334.14093856 346.3372803 -334.13626523 337.88771641 -334.12897491 329.43813324 C-334.12479042 324.55976907 -334.12247766 319.68140495 -334.12030029 314.80303955 C-334.09115014 255.294045 -333.91208087 195.7851792 -333.66626704 136.27671975 C-333.63320339 128.17180562 -333.60498977 120.06688316 -333.57867432 111.96194458 C-333.54619322 102.01129565 -333.5064206 92.06070712 -333.45741057 82.11012536 C-333.43227365 76.97698196 -333.41029336 71.8438755 -333.3966217 66.71068764 C-333.38387295 61.97809696 -333.36192138 57.24564154 -333.33260894 52.5131253 C-333.32354806 50.79120704 -333.31785376 49.06926726 -333.31578851 47.3473264 C-333.31247106 45.0079976 -333.29702035 42.66905386 -333.2784729 40.32980347 C-333.27294214 39.02616789 -333.26741138 37.72253231 -333.26171303 36.37939262 C-333.0025461 33.03287669 -332.82326179 30.82620934 -331 28 C-326.29938153 26.54129011 -321.27607634 26.84782695 -316.38198853 26.84178162 C-315.52748309 26.83684364 -314.67297765 26.83190566 -313.7925781 26.82681805 C-310.93675318 26.81149184 -308.08095066 26.80309567 -305.22509766 26.79467773 C-303.17497563 26.78509538 -301.12485556 26.77508508 -299.07473755 26.76467896 C-293.5132993 26.73766261 -287.9518526 26.71663533 -282.39038515 26.69667697 C-276.57675927 26.67479726 -270.76315936 26.64741828 -264.94955444 26.62062073 C-253.94248584 26.57072071 -242.9354028 26.52577188 -231.92830598 26.48259836 C-219.39634458 26.43320301 -206.86440923 26.37829339 -194.33247304 26.32291877 C-168.55500635 26.20914002 -142.77751465 26.10229203 -117 26 C-116.01 23.03 -116.01 23.03 -115 20 C-114.34 20 -113.68 20 -113 20 C-112.731875 19.26265625 -112.46375 18.5253125 -112.1875 17.765625 C-106.79796823 5.21368916 -93.95894011 -4.27740455 -82 -10 C-53.87471743 -21.16129635 -24.06726787 -19.2985213 0 0 Z " fill="#1B3546" transform="translate(611,324)"/>
<path d="M0 0 C1.06347656 0.81597656 1.06347656 0.81597656 2.1484375 1.6484375 C12.36860012 9.92959694 18.61919214 20.75620366 23 33 C23.3403125 33.9178125 23.680625 34.835625 24.03125 35.78125 C29.25839354 52.62426808 26.89475092 71.63399441 19.40234375 87.3515625 C18.00535094 89.9533329 16.52935477 92.47499491 15 95 C14.31980918 96.32648508 13.64817155 97.65757836 13 99 C13.99 98.67 14.98 98.34 16 98 C18.84437784 97.94784328 21.6578343 97.95350232 24.5 98.015625 C25.74813477 98.04036896 25.74813477 98.04036896 27.02148438 98.06561279 C28.78001422 98.10308709 30.53848096 98.14363029 32.296875 98.18701172 C34.98950941 98.24975555 37.68195617 98.29118281 40.375 98.33203125 C42.08336392 98.3710798 43.79169931 98.41140164 45.5 98.453125 C46.30630859 98.46265198 47.11261719 98.47217896 47.94335938 98.48199463 C53.58836511 98.65506978 53.58836511 98.65506978 55.6855011 100.41236877 C57.29835673 102.3603506 57.78051558 103.47377738 58 106 C55.33077825 114.94133299 50.40506531 123.39930096 46.1875 131.6875 C44.93718854 134.15999347 43.69053221 136.63431372 42.4453125 139.109375 C41.99198296 140.00981789 41.99198296 140.00981789 41.52949524 140.92845154 C39.12112891 145.72626957 36.81431416 150.56469358 34.5625 155.4375 C23.35158333 179.5394996 23.35158333 179.5394996 13.94771194 183.38814163 C10.70830708 184.40577516 7.48336676 184.41747593 4.12451172 184.38818359 C3.37074249 184.39344055 2.61697327 184.39869751 1.84036255 184.40411377 C-0.63007853 184.41722665 -3.09986585 184.40860887 -5.5703125 184.3984375 C-7.29711022 184.40046032 -9.0239071 184.4033735 -10.7507019 184.40713501 C-14.36008888 184.41154618 -17.96925238 184.40516477 -21.57861328 184.39111328 C-26.19999473 184.3739963 -30.82085441 184.38388597 -35.44221687 184.40183067 C-39.00418011 184.41267929 -42.56601992 184.40921768 -46.12798691 184.4014473 C-47.83200009 184.3994496 -49.53602457 184.40188942 -51.24002457 184.40888596 C-53.62141823 184.41652117 -56.00196972 184.40486912 -58.38330078 184.38818359 C-59.08368469 184.39425629 -59.7840686 184.40032898 -60.50567627 184.40658569 C-64.82073223 184.35069032 -67.59428952 183.69220193 -71 181 C-72.58703002 177.08985039 -72.46847201 175.22008886 -70.95703125 171.28369141 C-69.40154767 168.06586295 -67.72917788 164.94033255 -66 161.8125 C-65.43410156 160.75224609 -64.86820313 159.69199219 -64.28515625 158.59960938 C-60.83148234 152.17389636 -57.18863634 145.88623844 -53.3828125 139.6628418 C-52.02267646 137.04366739 -51.50303179 134.88287955 -51 132 C-50.02345496 130.97708271 -49.02094185 129.97861011 -48 129 C-47.06256333 127.1766044 -46.19139252 125.31820792 -45.375 123.4375 C-44.94960938 122.46683594 -44.52421875 121.49617187 -44.0859375 120.49609375 C-43.72757813 119.67238281 -43.36921875 118.84867188 -43 118 C-41.68164112 115.36328224 -39.84594783 113.29345034 -38 111 C-37.01 109.515 -37.01 109.515 -36 108 C-41.34902924 107.40801257 -46.60884846 106.85812759 -52 107 C-52 107.33 -52 107.66 -52 108 C-60 108 -60 108 -63 107 C-61.20726353 105.20726353 -59.41861395 103.4894841 -57.51049805 101.81396484 C-54.59216674 98.54286821 -53.94992635 96.42076841 -53.01953125 92.1640625 C-52.86450638 91.4797818 -52.70948151 90.7955011 -52.54975891 90.09048462 C-52.2063542 88.56552351 -51.87120328 87.03868725 -51.54302979 85.51037598 C-50.96306037 82.82923153 -50.35216025 80.15641292 -49.73583984 77.48339844 C-48.58747956 72.48440743 -47.47224456 67.47877026 -46.37084961 62.46923828 C-45.91109563 60.38745123 -45.446489 58.30673056 -44.97729492 56.22705078 C-44.29056999 53.18227727 -43.61830654 50.13462891 -42.94921875 47.0859375 C-42.73786789 46.16090424 -42.52651703 45.23587097 -42.3087616 44.2828064 C-40.80702581 37.61496546 -40.80702581 37.61496546 -42 31 C-45.95577551 28.8873472 -49.46901164 28.72977318 -53.90161133 28.68115234 C-54.91220108 28.66608391 -54.91220108 28.66608391 -55.94320679 28.65071106 C-58.1561401 28.61997566 -60.36895296 28.60287121 -62.58203125 28.5859375 C-64.12189259 28.56721805 -65.66174376 28.54764405 -67.20158386 28.5272522 C-71.24402865 28.47600694 -75.28650666 28.43634069 -79.32910156 28.39910889 C-83.45841643 28.35902141 -87.58759398 28.30795075 -91.71679688 28.2578125 C-99.81110398 28.16114334 -107.90547925 28.07670992 -116 28 C-115.67 25.36 -115.34 22.72 -115 20 C-114.34 20 -113.68 20 -113 20 C-112.731875 19.26265625 -112.46375 18.5253125 -112.1875 17.765625 C-106.79796823 5.21368916 -93.95894011 -4.27740455 -82 -10 C-53.87471743 -21.16129635 -24.06726787 -19.2985213 0 0 Z " fill="#EEB83A" transform="translate(611,324)"/>
<path d="M0 0 C1.02487015 -0.00571014 2.0497403 -0.01142029 3.10566711 -0.01730347 C4.79124725 -0.01898026 4.79124725 -0.01898026 6.51087952 -0.02069092 C7.69482803 -0.02565582 8.87877655 -0.03062073 10.09860229 -0.03573608 C13.34652936 -0.04784336 16.59442043 -0.0553022 19.84236598 -0.05974674 C21.87146135 -0.06267885 23.90055109 -0.06678387 25.92964363 -0.07125092 C32.2781401 -0.08492087 38.62662367 -0.09459064 44.97513384 -0.09845281 C52.30410052 -0.10293602 59.63288094 -0.12049804 66.96179098 -0.1494534 C72.62726377 -0.17106031 78.2926841 -0.18115651 83.95819765 -0.18249393 C87.34201601 -0.18354244 90.72565914 -0.18946017 94.10943413 -0.20731354 C97.88271708 -0.22431037 101.65554289 -0.22250931 105.42884827 -0.21600342 C106.55054413 -0.2252182 107.67223999 -0.23443298 108.82792664 -0.243927 C110.36946159 -0.23557327 110.36946159 -0.23557327 111.94213867 -0.22705078 C112.834225 -0.22851734 113.72631132 -0.2299839 114.64543056 -0.2314949 C117.54993367 0.22067443 118.90875261 1.1386954 121.03456116 3.14044189 C123.12916675 8.81368537 120.86044603 13.09618343 118.59706116 18.32794189 C118.27801819 19.09557861 117.95897522 19.86321533 117.63026428 20.65411377 C116.44713463 23.48958389 115.23996199 26.31436429 114.03456116 29.14044189 C112.79446118 32.07011769 111.55866738 35.00160019 110.32362366 37.93341064 C109.98317017 38.7413356 109.64271667 39.54926056 109.29194641 40.38166809 C106.67158465 46.60802362 104.07827158 52.84534416 101.49159241 59.08575439 C100.33324285 61.87434196 99.17437608 64.6627139 98.01527405 67.45098877 C97.22933653 69.34446582 96.44518779 71.23868624 95.66273499 73.13360596 C94.50651116 75.93225564 93.34342967 78.72797215 92.17909241 81.52325439 C91.83626724 82.3577713 91.49344208 83.19228821 91.14022827 84.05209351 C83.56334533 102.1655989 83.56334533 102.1655989 75.16882706 105.99056435 C68.75392866 108.31841428 62.85658081 108.56668256 56.07655334 108.52862549 C54.33098648 108.53651093 54.33098648 108.53651093 52.55015564 108.54455566 C48.7271102 108.55769436 44.90448538 108.54904126 41.08143616 108.53887939 C38.41584255 108.54090133 35.75026148 108.54380945 33.08467102 108.5475769 C27.50997906 108.55301798 21.93540678 108.54588318 16.36073303 108.53155518 C9.92298164 108.51519963 3.48551488 108.52054464 -2.95222974 108.53703439 C-8.49386948 108.55065818 -14.03542369 108.55256555 -19.57707477 108.54471838 C-22.8808937 108.54005084 -26.18454994 108.54057715 -29.48836517 108.54932785 C-33.16744332 108.5569372 -36.845972 108.54534591 -40.52500916 108.52862549 C-41.61498199 108.53469818 -42.70495483 108.54077087 -43.82795715 108.54702759 C-53.18291248 108.46817075 -53.18291248 108.46817075 -56.96543884 105.14044189 C-58.79838158 101.63708487 -59.21351548 99.97666375 -58.08189392 96.16217041 C-57.55490906 95.12503906 -57.02792419 94.08790771 -56.48497009 93.01934814 C-55.9040863 91.84984619 -55.32320251 90.68034424 -54.72471619 89.47540283 C-54.07596071 88.21782798 -53.4270303 86.96034336 -52.77793884 85.70294189 C-52.11650093 84.38530681 -51.45718261 83.06660574 -50.7999115 81.74688721 C-49.47639965 79.09341508 -48.14422238 76.44460483 -46.80479431 73.7991333 C-44.39998788 69.0354565 -42.11912842 64.21539099 -39.84043884 59.39044189 C-38.97057125 57.57474979 -38.09938764 55.7596878 -37.22715759 53.94512939 C-35.35420731 50.04668641 -33.49159464 46.14368643 -31.63975525 42.23516846 C-29.44070505 37.59575001 -27.22568003 32.96419036 -25.00285339 28.33612061 C-24.10877208 26.46791633 -23.21982105 24.59724743 -22.33622742 22.72406006 C-21.08429757 20.07225308 -19.81405877 17.42994552 -18.53965759 14.78887939 C-17.98227654 13.59187912 -17.98227654 13.59187912 -17.41363525 12.37069702 C-14.96153921 7.34982387 -12.57022794 4.34926506 -7.96543884 1.14044189 C-5.01005165 0.15531283 -3.08193723 0.01028107 0 0 Z " fill="#A8C2CF" transform="translate(603.9654388427734,620.8595581054688)"/>
<path d="M0 0 C1.44678886 -0.0129007 1.44678886 -0.0129007 2.92280579 -0.02606201 C3.97949966 -0.03032196 5.03619354 -0.03458191 6.12490845 -0.03897095 C7.23897568 -0.04714844 8.35304291 -0.05532593 9.50086975 -0.06375122 C13.19406595 -0.08860071 16.8872238 -0.10511806 20.58047485 -0.11953735 C21.84022755 -0.12486103 23.09998024 -0.13018471 24.39790726 -0.13566971 C29.69086094 -0.15689536 34.98380117 -0.17602621 40.2767849 -0.1872921 C47.85793582 -0.20353593 55.43857467 -0.23673374 63.01953256 -0.29369295 C68.99588908 -0.33706366 74.9720124 -0.35303693 80.94853592 -0.35942459 C83.48991165 -0.36615341 86.03127945 -0.38141741 88.57255173 -0.4053154 C92.12555942 -0.43682775 95.67726726 -0.43702417 99.2303772 -0.42959595 C100.28302261 -0.44600128 101.33566803 -0.46240662 102.42021179 -0.47930908 C107.1908274 -0.43840444 109.53926812 -0.4104832 113.46961975 2.47869873 C115.90063659 6.01815525 115.86326677 7.92575666 115.30703735 12.15390015 C114.22817993 15.4859314 114.22817993 15.4859314 112.7015686 18.96640015 C112.42591568 19.6054277 112.15026276 20.24445526 111.86625671 20.90284729 C110.96230003 22.99180486 110.04110439 25.07265941 109.11953735 27.15390015 C108.48490205 28.61075768 107.85162008 30.06820544 107.21963501 31.5262146 C106.24089371 33.78401175 105.26131454 36.04139473 104.27706909 38.29679871 C102.00376006 43.51206775 99.79343078 48.75033072 97.6234436 54.0093689 C97.33131485 54.71562408 97.0391861 55.42187927 96.73820496 56.14953613 C95.61069107 58.87662097 94.48362044 61.60382828 93.36676025 64.33529663 C92.60006674 66.20821305 91.82480591 68.07761534 91.04922485 69.9468689 C90.39736206 71.53277832 90.39736206 71.53277832 89.73233032 73.15072632 C86.84021518 79.24457838 83.45150646 84.08166559 77.30703735 87.15390015 C74.73239538 87.39952514 72.18534184 87.57898726 69.60391235 87.70858765 C68.77566956 87.75063324 67.94742676 87.79267883 67.09408569 87.83599854 C54.62426381 88.39460192 42.1381791 88.30833325 29.65864563 88.28307724 C27.53757774 88.27886147 25.41651095 88.27592258 23.29544067 88.27319336 C6.7076717 88.24902264 -9.88361977 88.21993156 -26.46847534 87.88943481 C-28.10535483 87.85765976 -29.74232984 87.83044634 -31.37936401 87.80801392 C-33.59390515 87.77543187 -35.80709302 87.72385539 -38.02108765 87.6656189 C-39.22668335 87.63943481 -40.43227905 87.61325073 -41.67440796 87.58627319 C-45.04051691 87.10411702 -46.51146676 86.77983713 -48.69296265 84.15390015 C-49.18938039 78.64224623 -48.13217569 75.15316074 -45.68295288 70.24398804 C-45.36257553 69.59257339 -45.04219818 68.94115875 -44.71211243 68.27000427 C-43.65573401 66.13166957 -42.57942527 64.0041291 -41.5015564 61.8765564 C-40.75516083 60.38158662 -40.00965614 58.88617174 -39.26499939 57.39033508 C-37.70264397 54.25982666 -36.13051549 51.13448571 -34.55111694 48.01254272 C-32.53850901 44.03265998 -30.54920737 40.04167257 -28.56703091 36.04656315 C-27.03074609 32.95609205 -25.48278295 29.87158586 -23.93129158 26.7887249 C-23.19398555 25.32058146 -22.46005785 23.85073591 -21.72973442 22.37910652 C-13.71348767 6.26347455 -13.71348767 6.26347455 -7.69296265 1.15390015 C-4.81790389 0.19554723 -2.98765402 0.01984776 0 0 Z " fill="#A7C1CE" transform="translate(651.6929626464844,519.8460998535156)"/>
<path d="M0 0 C0.86193466 -0.00817749 1.72386932 -0.01635498 2.61192322 -0.02478027 C5.47125549 -0.04964334 8.33053815 -0.06615109 11.18994141 -0.08056641 C12.65254835 -0.08855192 12.65254835 -0.08855192 14.14470291 -0.09669876 C19.30398015 -0.12343213 24.46323315 -0.14280792 29.62255859 -0.15722656 C34.95836389 -0.17389048 40.29355345 -0.21868231 45.6291256 -0.26959801 C49.72631564 -0.30320639 53.82335825 -0.31479685 57.92067337 -0.32045364 C59.88792257 -0.32718205 61.85516154 -0.34244514 63.82227707 -0.36634445 C66.57343959 -0.39786682 69.32292402 -0.39805267 72.07421875 -0.390625 C72.88891129 -0.40703033 73.70360382 -0.42343567 74.54298401 -0.44033813 C78.48336727 -0.39671951 80.26978882 -0.1754345 83.2061615 2.55065918 C84.66650391 5.19287109 84.66650391 5.19287109 84.62426758 8.05175781 C83.51233468 11.69848955 82.03956156 15.04965972 80.34228516 18.45068359 C80.00423859 19.14331299 79.66619202 19.83594238 79.31790161 20.54956055 C78.21244426 22.80943629 77.09589599 25.06362787 75.97900391 27.31787109 C75.20700833 28.89033421 74.43561151 30.46309142 73.66479492 32.03613281 C68.29262577 42.98030329 62.8441479 53.88688525 57.36303711 64.77685547 C54.19605703 71.08024363 51.12341583 77.41352301 48.16650391 83.81787109 C39.2583091 102.91276226 39.2583091 102.91276226 30.66650391 107.19287109 C26.16046141 108.12708332 21.82275836 108.34527048 17.22753906 108.40161133 C16.50799545 108.41139511 15.78845184 108.42117889 15.04710388 108.43125916 C12.68327637 108.46099501 10.31950425 108.48253288 7.95556641 108.50146484 C6.7376346 108.51132258 6.7376346 108.51132258 5.49509811 108.52137947 C1.20003754 108.5538715 -3.09499922 108.57835132 -7.39013672 108.59790039 C-10.93249643 108.61572655 -14.47406208 108.65058129 -18.01611328 108.70043945 C-22.30900616 108.76077499 -26.60116214 108.79139228 -30.89445877 108.80107307 C-32.523511 108.80960163 -34.15254487 108.82835552 -35.781353 108.8578167 C-51.1026726 109.12011262 -51.1026726 109.12011262 -56.98501587 103.87416077 C-60.2338935 99.82344923 -60.96233504 96.22702227 -60.82177734 91.12255859 C-59.78914224 84.92674795 -56.35967152 79.61014439 -53.33349609 74.19287109 C-52.43846534 72.55713683 -51.54534637 70.92035553 -50.65380859 69.28271484 C-49.16083685 66.54202546 -47.6657764 63.80262408 -46.1628418 61.06738281 C-42.26056724 53.95362956 -38.49441313 46.77659254 -34.77099609 39.56787109 C-33.15162606 36.44838697 -31.5299117 33.33014304 -29.90625 30.21289062 C-28.86987073 28.22282363 -27.83563767 26.23163726 -26.80371094 24.23925781 C-25.37097428 21.48601788 -23.91798654 18.74450229 -22.45849609 16.00537109 C-22.04269287 15.19825684 -21.62688965 14.39114258 -21.19848633 13.55957031 C-16.1008198 4.10762591 -10.69699248 0.05565697 0 0 Z " fill="#A7C1CE" transform="translate(488.33349609375,620.80712890625)"/>
<path d="M0 0 C0.89017319 -0.00708481 1.78034637 -0.01416962 2.69749451 -0.02146912 C3.66643646 -0.0189917 4.63537842 -0.01651428 5.63368225 -0.01396179 C6.66011337 -0.01907272 7.68654449 -0.02418365 8.74407959 -0.02944946 C12.13971271 -0.04335846 15.53514316 -0.04238772 18.93080139 -0.04008484 C21.28965328 -0.04397096 23.64850446 -0.04830546 26.00735474 -0.05307007 C30.95280729 -0.06053504 35.89818846 -0.0602389 40.84364319 -0.05497742 C47.18354157 -0.04918161 53.52314792 -0.06611538 59.86299801 -0.08932209 C64.73486034 -0.104048 69.60665215 -0.10493269 74.47853279 -0.10181236 C76.81612794 -0.10232612 79.15372698 -0.10757402 81.49130058 -0.11762428 C84.75900676 -0.12994931 88.02614159 -0.12322032 91.2938385 -0.11161804 C92.26075623 -0.11926178 93.22767395 -0.12690552 94.22389221 -0.13478088 C99.08550084 -0.09659375 102.67469884 -0.06524314 106.52845764 3.26069641 C108.92886646 8.4517283 108.76119866 11.4683 106.88002014 16.83100891 C105.99494657 19.02564566 105.0841868 21.21002894 104.15345764 23.38569641 C103.66611145 24.57042542 103.17876526 25.75515442 102.676651 26.9757843 C101.59150358 29.61097772 100.49110784 32.2391588 99.38050842 34.86372375 C97.70722027 38.8227756 96.06944023 42.79578449 94.43739319 46.77198792 C93.01641111 50.23041947 91.58603562 53.68490663 90.15290833 57.13832092 C89.44779903 58.83801567 88.74437466 60.53841042 88.04267883 62.23951721 C87.04774385 64.64476443 86.0416897 67.04505225 85.03236389 69.44429016 C84.73788864 70.16087296 84.44341339 70.87745575 84.14001465 71.61575317 C81.78297631 77.1676148 79.77726344 81.21211924 74.06880188 83.87387085 C68.93357112 85.69926786 64.00315548 85.68194563 58.60194397 85.64888 C57.53591446 85.65413696 56.46988495 85.65939392 55.37155151 85.66481018 C51.86771249 85.67795383 48.36433208 85.66929368 44.86048889 85.65913391 C42.41767286 85.66115581 39.97485742 85.66406821 37.53204346 85.66783142 C32.42214692 85.67224677 27.31240807 85.66584728 22.20252991 85.65180969 C15.65198422 85.63469128 9.10180659 85.64458111 2.5512743 85.66252708 C-2.48872659 85.67336291 -7.52864006 85.66991993 -12.56864357 85.66214371 C-14.98438371 85.66014257 -17.40013178 85.66259795 -19.81586266 85.66958237 C-23.18852692 85.67719627 -26.56059263 85.66559397 -29.93321228 85.64888 C-31.43026703 85.65798904 -31.43026703 85.65798904 -32.95756531 85.6672821 C-41.58286288 85.58804665 -41.58286288 85.58804665 -45.47154236 82.26069641 C-46.81606622 79.16781644 -46.79910921 77.20624382 -45.69664001 74.02388 C-44.47806767 71.28222603 -43.15183964 68.6185499 -41.78404236 65.94819641 C-40.761523 63.88458453 -39.73940151 61.82077546 -38.71763611 59.75679016 C-38.18251404 58.68928528 -37.64739197 57.6217804 -37.09605408 56.52192688 C-34.45202893 51.21400864 -31.90410318 45.86064977 -29.34654236 40.51069641 C-28.84533875 39.47082581 -28.34413513 38.4309552 -27.82774353 37.35957336 C-25.48342537 32.49389916 -23.16562696 27.62023921 -20.92466736 22.70600891 C-20.5290863 21.84588196 -20.13350525 20.985755 -19.72593689 20.0995636 C-19.00367671 18.52389354 -18.2902216 16.94413835 -17.58824158 15.35932922 C-14.0060433 7.57627014 -9.36642927 0.02492298 0 0 Z " fill="#A7C0CD" transform="translate(697.4715423583984,422.7393035888672)"/>
<path d="M0 0 C0.79409775 -0.00671722 1.5881955 -0.01343445 2.40635681 -0.02035522 C5.02218944 -0.03930024 7.63776522 -0.04325703 10.25366211 -0.04541016 C12.07539474 -0.05183839 13.89712634 -0.05856677 15.71885681 -0.06558228 C19.53264766 -0.07754473 23.34634797 -0.08126395 27.16015625 -0.08007812 C32.04855082 -0.07987451 36.93636683 -0.10722544 41.82462406 -0.14162254 C45.58469822 -0.16384543 49.34463182 -0.16791716 53.10476494 -0.16685867 C54.90731242 -0.16921971 56.70986347 -0.17807148 58.51234627 -0.19352341 C61.03078136 -0.21309912 63.5479512 -0.20738021 66.06640625 -0.1953125 C66.81093048 -0.20655151 67.55545471 -0.21779053 68.32254028 -0.22937012 C71.77935114 -0.18723455 73.63116454 0.03114275 76.40841675 2.16659546 C78.23908719 4.65890138 78.80217984 6.20561111 78.96850586 9.29052734 C78.29443359 11.50927734 78.29443359 11.50927734 77.15209961 13.79052734 C76.72453369 14.66306152 76.29696777 15.5355957 75.85644531 16.43457031 C75.13847778 17.84826904 75.13847778 17.84826904 74.40600586 19.29052734 C73.38755033 21.35551989 72.36933275 23.42062979 71.35131836 25.48583984 C70.80378906 26.58444336 70.25625977 27.68304687 69.69213867 28.81494141 C66.97922021 34.2853532 64.33395772 39.78803104 61.68530273 45.2897644 C60.78345922 47.16043838 59.87841539 49.02953092 58.97241211 50.89819336 C56.43012785 56.14603226 53.90056639 61.39701023 51.47631836 66.70068359 C51.11820068 67.48137207 50.76008301 68.26206055 50.39111328 69.06640625 C49.76576044 70.43861791 49.14782959 71.81425561 48.54003906 73.19433594 C46.04549706 78.66742454 43.20704612 82.88051813 38.06616211 86.11865234 C32.14747642 88.27550174 25.62538953 87.92794059 19.40600586 88.04052734 C18.68182465 88.05832245 17.95764343 88.07611755 17.21151733 88.0944519 C-6.86094985 88.67999053 -30.96564147 87.88328433 -55.03149414 87.29052734 C-56.04767623 81.49519483 -56.40209336 77.61541573 -53.48852539 72.27880859 C-52.91529541 71.20252197 -52.34206543 70.12623535 -51.75146484 69.01733398 C-50.80726685 67.3272522 -50.80726685 67.3272522 -49.84399414 65.60302734 C-49.19642472 64.40675016 -48.55086152 63.20938497 -47.90722656 62.01098633 C-46.59821288 59.58322436 -45.27640664 57.16321557 -43.94165039 54.74951172 C-42.21419204 51.62136373 -40.50829348 48.48292398 -38.81274414 45.33740234 C-36.86402534 41.72934394 -34.89950032 38.130802 -32.91821289 34.54052734 C-30.93668461 30.94972126 -28.98428139 27.34504611 -27.05102539 23.72802734 C-26.564646 22.8249585 -26.0782666 21.92188965 -25.57714844 20.99145508 C-24.66453133 19.29654993 -23.75791629 17.59839161 -22.85888672 15.89624023 C-17.13249938 5.32538926 -12.59488913 -0.01537462 0 0 Z " fill="#A6BFCD" transform="translate(543.031494140625,519.70947265625)"/>
<path d="M0 0 C0.85145599 0.01649597 1.70291199 0.03299194 2.58016968 0.04998779 C4.37382587 0.08737062 6.16741888 0.12790162 7.9609375 0.17138672 C10.70826023 0.23431368 13.45539561 0.27563729 16.203125 0.31640625 C17.94794692 0.35544119 19.69274066 0.39576162 21.4375 0.4375 C22.6703624 0.45179047 22.6703624 0.45179047 23.9281311 0.46636963 C29.67332111 0.63939062 29.67332111 0.63939062 31.77519226 2.39674377 C33.38374502 4.34509233 33.86665181 5.46043971 34.0859375 7.984375 C31.41671575 16.92570799 26.49100281 25.38367596 22.2734375 33.671875 C21.02312604 36.14436847 19.77646971 38.61868872 18.53125 41.09375 C18.2290303 41.69404526 17.92681061 42.29434052 17.61543274 42.91282654 C15.20706641 47.71064457 12.90025166 52.54906858 10.6484375 57.421875 C-0.56247917 81.5238746 -0.56247917 81.5238746 -9.96635056 85.37251663 C-13.20575542 86.39015016 -16.43069574 86.40185093 -19.78955078 86.37255859 C-20.92020462 86.38044403 -20.92020462 86.38044403 -22.07369995 86.38848877 C-24.54414103 86.40160165 -27.01392835 86.39298387 -29.484375 86.3828125 C-31.21117272 86.38483532 -32.9379696 86.3877485 -34.6647644 86.39151001 C-38.27415138 86.39592118 -41.88331488 86.38953977 -45.49267578 86.37548828 C-50.11405723 86.3583713 -54.73491691 86.36826097 -59.35627937 86.38620567 C-62.91824261 86.39705429 -66.48008242 86.39359268 -70.04204941 86.3858223 C-71.74606259 86.3838246 -73.45008707 86.38626442 -75.15408707 86.39326096 C-77.53548073 86.40089617 -79.91603222 86.38924412 -82.29736328 86.37255859 C-82.99774719 86.37863129 -83.6981311 86.38470398 -84.41973877 86.39096069 C-88.73479473 86.33506532 -91.50835202 85.67657693 -94.9140625 82.984375 C-96.50109252 79.07422539 -96.38253451 77.20446386 -94.87109375 73.26806641 C-93.31561017 70.05023795 -91.64324038 66.92470755 -89.9140625 63.796875 C-89.34816406 62.73662109 -88.78226563 61.67636719 -88.19921875 60.58398438 C-84.74554484 54.15827136 -81.10269884 47.87061344 -77.296875 41.6472168 C-75.93673896 39.02804239 -75.41709429 36.86725455 -74.9140625 33.984375 C-73.93751746 32.96145771 -72.93500435 31.96298511 -71.9140625 30.984375 C-70.97662583 29.1609794 -70.10545502 27.30258292 -69.2890625 25.421875 C-68.86367188 24.45121094 -68.43828125 23.48054688 -68 22.48046875 C-67.64164063 21.65675781 -67.28328125 20.83304687 -66.9140625 19.984375 C-65.59570362 17.34765724 -63.76001033 15.27782534 -61.9140625 12.984375 C-61.2540625 11.994375 -60.5940625 11.004375 -59.9140625 9.984375 C-65.26309174 9.39238757 -70.52291096 8.84250259 -75.9140625 8.984375 C-75.9140625 9.314375 -75.9140625 9.644375 -75.9140625 9.984375 C-83.9140625 9.984375 -83.9140625 9.984375 -86.9140625 8.984375 C-86.5840625 8.324375 -86.2540625 7.664375 -85.9140625 6.984375 C-85.08269775 7.01055908 -84.25133301 7.03674316 -83.39477539 7.0637207 C-80.26935391 7.14963771 -77.14454004 7.21195711 -74.01831055 7.2590332 C-72.01635449 7.29613749 -70.01494508 7.35971637 -68.01367188 7.42382812 C-59.84470497 7.66534384 -59.84470497 7.66534384 -52.55078125 4.51171875 C-46.14873875 0.28047082 -38.06762732 1.23593365 -30.6640625 1.234375 C-28.3506574 1.21265968 -26.0374655 1.18411323 -23.72418213 1.15203857 C-22.29403828 1.13446768 -20.86378291 1.12401748 -19.43353271 1.12188721 C-16.71635834 1.10600516 -14.15991717 1.03619658 -11.49560547 0.47460938 C-7.65963657 -0.25384018 -3.89306566 -0.08389091 0 0 Z " fill="#A4BECC" transform="translate(634.9140625,422.015625)"/>
<path d="M0 0 C2.81031164 2.64544002 5.3153914 5.56060416 7.81640625 8.49609375 C9.96717264 10.9716536 12.17485067 13.38178089 14.40649414 15.78417969 C15.98313018 17.48183528 17.55046381 19.18773047 19.1171875 20.89453125 C20.71965519 22.63645923 22.33501841 24.33576844 24.0078125 26.01171875 C27.50376638 29.63433763 28.98281662 32.70103516 29.24609375 37.65234375 C28.69815456 41.70986811 26.70053725 44.96192143 23.9375 47.9375 C19.5488531 49.4003823 15.51565808 49.65742409 10.9375 48.9375 C8.07574303 47.39567865 6.09219534 45.3480974 3.9375 42.9375 C3.36386719 42.29941406 2.79023438 41.66132813 2.19921875 41.00390625 C1.01736169 39.6595766 -0.1531508 38.30519426 -1.3125 36.94140625 C-2.99234577 35.01783286 -4.73900219 33.22436504 -6.5625 31.4375 C-9.70116522 28.34820704 -12.63138372 25.12467461 -15.48828125 21.7734375 C-16.76080988 20.28934703 -18.09102499 18.85484212 -19.4375 17.4375 C-21.66271086 14.01409867 -22.26982621 11.00428338 -22.0625 6.9375 C-20.56177609 2.75127013 -18.93818011 0.16895219 -15.0625 -2.0625 C-9.87393878 -4.2861691 -4.46263445 -3.00544769 0 0 Z " fill="#EEB73B" transform="translate(472.0625,264.0625)"/>
<path d="M0 0 C3.43493566 2.15540309 4.35372955 4.34344101 5.25390625 8.20703125 C5.24204403 15.17015523 2.12971605 19.47680171 -2.3125 24.375 C-2.8489917 24.98359863 -3.3854834 25.59219727 -3.93823242 26.21923828 C-7.71016147 30.45893819 -11.64330876 34.51153845 -15.71484375 38.46484375 C-18.38527605 41.13527605 -20.82040235 43.97548107 -23.2421875 46.87109375 C-25.26594967 49.05738604 -27.02693979 50.36853451 -29.984375 50.90625 C-34.67536747 51.0810696 -37.99407454 50.90927654 -41.8125 48 C-44.62487889 45.16096349 -45.9085121 42.69478801 -45.96484375 38.67260742 C-45.20941536 31.03333784 -39.28794699 25.39095003 -34.1875 20.1875 C-33.47875732 19.45200928 -32.77001465 18.71651855 -32.03979492 17.95874023 C-30.61603268 16.48534372 -29.18780625 15.01624634 -27.75488281 13.55175781 C-25.96627745 11.72133411 -24.19514633 9.87613333 -22.4296875 8.0234375 C-21.47497545 7.03547443 -20.51932488 6.04841696 -19.5625 5.0625 C-18.74394531 4.21816406 -17.92539062 3.37382812 -17.08203125 2.50390625 C-11.90648408 -1.94342323 -6.21817173 -2.9155743 0 0 Z " fill="#EEB83B" transform="translate(667.75,262.5)"/>
<path d="M0 0 C4.59764054 5.0033147 4.44352512 10.9712253 4.4609375 17.40234375 C4.4675943 18.26509415 4.4742511 19.12784454 4.48110962 20.01673889 C4.49119808 21.83462402 4.49592782 23.65254589 4.49560547 25.47045898 C4.49998117 28.23809225 4.53634688 31.00413248 4.57421875 33.77148438 C4.58008739 35.54426542 4.58405647 37.31705399 4.5859375 39.08984375 C4.60030853 39.9098436 4.61467957 40.72984344 4.62948608 41.57469177 C4.58447558 47.28715812 3.39757086 50.60600982 0.125 55.3125 C-3.79081787 58.12723641 -8.23581122 57.85194056 -12.875 57.3125 C-16.66400995 55.66510437 -18.65277427 53.74794086 -20.875 50.3125 C-21.640625 47.65625 -21.640625 47.65625 -22.125 44.8125 C-22.29515625 43.8740625 -22.4653125 42.935625 -22.640625 41.96875 C-22.875 39.3125 -22.875 39.3125 -22.39135742 37.52905273 C-21.73103907 34.69452302 -21.7991802 32.10105632 -21.84765625 29.19140625 C-21.85990234 28.00869141 -21.87214844 26.82597656 -21.88476562 25.60742188 C-21.91986752 23.12298776 -21.95891784 20.63860623 -22.00195312 18.15429688 C-22.01291016 16.97029297 -22.02386719 15.78628906 -22.03515625 14.56640625 C-22.05199463 13.48689697 -22.06883301 12.4073877 -22.08618164 11.29516602 C-21.75913663 6.67608055 -20.51399622 4.05239036 -17.5 0.5625 C-12.19412927 -3.98538919 -5.89753287 -3.46159538 0 0 Z " fill="#EEB83D" transform="translate(569.875,230.6875)"/>
<path d="M0 0 C0.88218201 0.00424484 1.76436401 0.00848969 2.67327881 0.01286316 C5.48562383 0.02963037 8.29724726 0.06727877 11.109375 0.10546875 C13.0182188 0.12051813 14.92707386 0.13420609 16.8359375 0.14648438 C21.51069389 0.17952748 26.18491218 0.2312962 30.859375 0.29296875 C30.859375 0.95296875 30.859375 1.61296875 30.859375 2.29296875 C32.220625 2.38578125 32.220625 2.38578125 33.609375 2.48046875 C37.63106724 3.48589181 38.62105295 4.89403527 40.859375 8.29296875 C42.4141419 11.40250254 42.14581937 13.85563636 41.859375 17.29296875 C39.83271262 20.99686896 38.37892984 22.94659886 34.859375 25.29296875 C27.31408833 26.42583049 19.5436157 26.38278375 11.921875 26.41796875 C11.22497559 26.4226416 10.52807617 26.42731445 9.81005859 26.43212891 C5.38454577 26.41836206 1.21216144 26.00802884 -3.140625 25.29296875 C-3.470625 25.95296875 -3.800625 26.61296875 -4.140625 27.29296875 C-4.140625 26.63296875 -4.140625 25.97296875 -4.140625 25.29296875 C-5.171875 25.39609375 -6.203125 25.49921875 -7.265625 25.60546875 C-12.35979838 25.19464832 -13.62416532 23.89315366 -17.140625 20.29296875 C-18.38483692 16.56033299 -18.80038622 13.16356788 -18.140625 9.29296875 C-16.74444722 6.79101817 -15.24039899 5.34502061 -13.140625 3.29296875 C-12.34833496 2.47638794 -12.34833496 2.47638794 -11.54003906 1.64331055 C-7.81034749 -0.45568458 -4.20507466 -0.07621481 0 0 Z " fill="#EEB83C" transform="translate(673.140625,359.70703125)"/>
<path d="M0 0 C35.18601919 -0.06865268 70.37202484 -0.12152195 105.55809689 -0.15319599 C109.71125741 -0.15694815 113.8644178 -0.16083111 118.01757812 -0.16479492 C119.25781777 -0.16597532 119.25781777 -0.16597532 120.52311276 -0.16717956 C133.91448942 -0.18023679 147.30582748 -0.20389238 160.69718124 -0.23145839 C174.43589857 -0.25950377 188.17459567 -0.27617442 201.91334045 -0.28226548 C210.39225396 -0.28638373 218.87105838 -0.29939523 227.34993832 -0.3237494 C233.16264566 -0.33959589 238.97529652 -0.34440283 244.7880239 -0.34050413 C248.142726 -0.33858086 251.49708337 -0.34318328 254.85177803 -0.35761642 C258.48883249 -0.3724999 262.12541678 -0.36896828 265.76248169 -0.36076355 C267.35295513 -0.37387134 267.35295513 -0.37387134 268.97555935 -0.38724393 C274.34340695 -0.35442104 278.45084751 -0.20916273 283 3 C284 6 284 6 284 9 C283.34 9.99 282.68 10.98 282 12 C281.87625 10.88625 281.7525 9.7725 281.625 8.625 C281.3534187 4.96896323 281.3534187 4.96896323 279 3 C276.88738418 2.693064 276.88738418 2.693064 274.41227531 2.73828697 C273.43990925 2.73082148 272.46754318 2.72335599 271.46571147 2.71566427 C270.38985353 2.717599 269.31399559 2.71953374 268.20553589 2.7215271 C266.50013128 2.7128385 266.50013128 2.7128385 264.76027405 2.70397437 C260.92462719 2.68687689 257.08909994 2.68408949 253.25341797 2.68115234 C250.51423335 2.67296851 247.77506295 2.66178131 245.03588867 2.65071106 C239.12528876 2.6284034 233.21470627 2.61341125 227.30407333 2.60334396 C218.75822629 2.58877774 210.2124399 2.56324678 201.66662838 2.53501268 C187.80267063 2.48950719 173.93870417 2.45290796 160.07470703 2.421875 C146.60463937 2.39170481 133.13459305 2.35736162 119.66455078 2.31738281 C118.83469146 2.31492126 118.00483213 2.31245972 117.14982556 2.30992357 C112.98679481 2.29754927 108.82376432 2.28509268 104.66073394 2.27259517 C70.10718522 2.16897115 35.55361166 2.07978649 1 2 C0.67 1.34 0.34 0.68 0 0 Z " fill="#0B1E2F" transform="translate(287,352)"/>
<path d="M0 0 C0.33 0 0.66 0 1 0 C0.58995823 6.36271704 0.21782073 11.90634564 -4.62537193 16.56265354 C-11.72519094 22.01997958 -18.76761978 21.82038966 -27.32275391 21.69702148 C-28.8595042 21.69696601 -30.39625649 21.69954577 -31.93299866 21.70454407 C-36.08403924 21.71051004 -40.23405364 21.6794707 -44.38489199 21.64129519 C-48.73908823 21.60735529 -53.09329325 21.60690807 -57.44760132 21.60255432 C-64.75593736 21.59061668 -72.06389457 21.55686707 -79.37207031 21.50756836 C-89.66713017 21.43816488 -99.96202056 21.40880868 -110.25727582 21.38716781 C-118.26789615 21.36884726 -126.27848224 21.33948046 -134.2890625 21.30859375 C-135.57343728 21.30383659 -135.57343728 21.30383659 -136.88375902 21.29898334 C-141.811845 21.28011316 -146.73984643 21.25567298 -151.66786003 21.22286797 C-153.1581461 21.21358545 -154.64844313 21.20589888 -156.13874626 21.19995499 C-158.17867295 21.19143371 -160.21856817 21.17618128 -162.25845337 21.16062927 C-163.39808344 21.15375815 -164.53771351 21.14688704 -165.71187782 21.1398077 C-169.19511254 20.99170401 -172.55879027 20.5476607 -176 20 C-175.67 19.34 -175.34 18.68 -175 18 C-174.17062613 17.99668985 -173.34125225 17.99337971 -172.48674583 17.98996925 C-152.30588441 17.90874754 -132.1250981 17.81665774 -111.94434166 17.71247292 C-102.18507835 17.66235197 -92.42582342 17.61590895 -82.66650391 17.578125 C-74.16024684 17.54518304 -65.65405489 17.50533958 -57.14786971 17.45720994 C-52.64395596 17.43196692 -48.14008529 17.41017911 -43.63611984 17.39665604 C-39.39589673 17.3838158 -35.1558215 17.36174016 -30.91567993 17.33261681 C-29.36048609 17.32355639 -27.80526845 17.31785438 -26.25004959 17.31578636 C-24.123757 17.31245293 -21.99788091 17.2969468 -19.87167358 17.2784729 C-18.68256063 17.27294214 -17.49344769 17.26741138 -16.26830101 17.26171303 C-11.80350473 16.90418924 -8.2867817 16.00280229 -4.734375 13.234375 C-2.69628503 10.60872756 -2.01720347 8.47225458 -1.25 5.25 C-0.88648438 3.77273438 -0.88648438 3.77273438 -0.515625 2.265625 C-0.34546875 1.51796875 -0.1753125 0.7703125 0 0 Z " fill="#2C3A49" transform="translate(558,411)"/>
<path d="M0 0 C7.58901249 -0.02321781 15.17802127 -0.04096311 22.76706123 -0.05181217 C26.29133488 -0.05702039 29.81558414 -0.06408045 33.33984375 -0.07543945 C37.39583565 -0.08842978 41.45180212 -0.09324526 45.5078125 -0.09765625 C46.76739777 -0.10281754 48.02698303 -0.10797882 49.32473755 -0.11329651 C50.50550873 -0.11337204 51.68627991 -0.11344757 52.90283203 -0.11352539 C53.93763702 -0.115746 54.97244202 -0.11796661 56.03860474 -0.12025452 C59.09847423 0.00399878 61.99302204 0.4340608 65 1 C65 1.33 65 1.66 65 2 C60.91225293 2.76934927 57.0599938 3.12244634 52.90283203 3.11352539 C51.72206085 3.11344986 50.54128967 3.11337433 49.32473755 3.11329651 C48.06515228 3.10813522 46.80556702 3.10297394 45.5078125 3.09765625 C44.20673553 3.0962413 42.90565857 3.09482635 41.56515503 3.09336853 C38.12270147 3.08956844 34.68029075 3.07975983 31.237854 3.06866455 C27.71847106 3.05839625 24.19908113 3.05385934 20.6796875 3.04882812 C13.78644084 3.03813509 6.89322248 3.02108911 0 3 C0 2.01 0 1.02 0 0 Z " fill="#A2BAC7" transform="translate(629,621)"/>
<path d="M0 0 C8.16233476 -0.06948076 16.32454617 -0.12280118 24.48710346 -0.15543652 C28.2772344 -0.1710991 32.06716316 -0.19234778 35.85717773 -0.22631836 C39.51410601 -0.2588913 43.1708397 -0.27684855 46.82790184 -0.28463173 C48.22378796 -0.29017901 49.61966331 -0.3010115 51.01546669 -0.31719017 C52.9689459 -0.33893429 54.92262051 -0.34022515 56.8762207 -0.34057617 C57.9887471 -0.34723801 59.1012735 -0.35389984 60.24751282 -0.36076355 C63 0 63 0 64.88273621 1.52128601 C65.25143326 2.00926163 65.62013031 2.49723724 66 3 C64.906875 2.979375 63.81375 2.95875 62.6875 2.9375 C59.05615809 2.81455548 59.05615809 2.81455548 56 4 C53.36383237 4.09679233 50.76034093 4.13924509 48.125 4.125 C47.41730469 4.12886719 46.70960938 4.13273438 45.98046875 4.13671875 C42.17767735 4.1296372 38.70960411 3.79057137 35 3 C33.7934375 3.2784375 33.7934375 3.2784375 32.5625 3.5625 C30 4 30 4 27.0625 2.9375 C23.21959091 1.76109926 21.74017377 2.72834092 18 4 C15.2565862 3.895631 12.7157643 3.46823522 10 3 C10 2.34 10 1.68 10 1 C9.236875 1.33 8.47375 1.66 7.6875 2 C5 3 5 3 2 3 C2 2.34 2 1.68 2 1 C1.34 0.67 0.68 0.34 0 0 Z " fill="#667C88" transform="translate(390,572)"/>
<path d="M0 0 C1.33597652 0.80814651 2.668725 1.62163181 4 2.4375 C4.7425 2.88996094 5.485 3.34242188 6.25 3.80859375 C6.8275 4.20175781 7.405 4.59492187 8 5 C8 5.33 8 5.66 8 6 C-41.5 6 -91 6 -142 6 C-142 5.67 -142 5.34 -142 5 C-141.29339391 4.99576806 -140.58678782 4.99153612 -139.85876942 4.98717594 C-122.66586306 4.88387341 -105.4729987 4.77523622 -88.28016376 4.66066074 C-79.96584276 4.6053816 -71.65151745 4.55190835 -63.3371582 4.50268555 C-56.09040931 4.45977865 -48.84369134 4.41348431 -41.59699029 4.36312145 C-37.75989938 4.3365729 -33.9228144 4.31172122 -30.08568764 4.29092598 C-26.47340059 4.27129573 -22.8611721 4.24713311 -19.24893761 4.21950912 C-17.29256548 4.2057237 -15.33616142 4.1967307 -13.37976074 4.18788147 C-12.21173416 4.17809265 -11.04370758 4.16830383 -9.84028625 4.15821838 C-8.82723577 4.15176583 -7.81418528 4.14531328 -6.77043629 4.1386652 C-4.08381823 4.00419525 -1.61816904 3.60103284 1 3 C0.67 2.01 0.34 1.02 0 0 Z " fill="#000718" transform="translate(429,722)"/>
<path d="M0 0 C8.89281882 -0.06960586 17.7855434 -0.12286485 26.67857552 -0.15543652 C30.80827605 -0.17107175 34.93778978 -0.19227061 39.06738281 -0.22631836 C43.05499983 -0.25898863 47.04243751 -0.27686913 51.03017807 -0.28463173 C52.54918108 -0.29016152 54.06817462 -0.30095992 55.58710098 -0.31719017 C57.71990177 -0.33906711 59.85196779 -0.34196275 61.98486328 -0.34057617 C63.1973172 -0.34723801 64.40977112 -0.35389984 65.65896606 -0.36076355 C69.41561482 0.04487793 71.81848722 0.97981246 75 3 C76 6 76 6 76 9 C75.34 9.99 74.68 10.98 74 12 C73.87625 10.88625 73.7525 9.7725 73.625 8.625 C73.3534187 4.96896323 73.3534187 4.96896323 71 3 C67.92356874 2.66679424 67.92356874 2.66679424 64.25537109 2.68115234 C63.56257553 2.67110672 62.86977997 2.6610611 62.1559906 2.65071106 C59.86181482 2.61977447 57.56775627 2.60281524 55.2734375 2.5859375 C53.68444808 2.56723423 52.09546867 2.54766146 50.50650024 2.5272522 C46.32098282 2.47583591 42.13543317 2.43626123 37.94976807 2.39910889 C33.67997197 2.35912857 29.41031105 2.30800907 25.140625 2.2578125 C16.76050887 2.16094085 8.38032607 2.07657228 0 2 C0 1.34 0 0.68 0 0 Z " fill="#0A1D41" transform="translate(495,352)"/>
<path d="M0 0 C1.31429237 -0.00472824 1.31429237 -0.00472824 2.65513611 -0.009552 C3.60497879 -0.00752777 4.55482147 -0.00550354 5.53344727 -0.00341797 C6.52498306 -0.00437469 7.51651886 -0.00533142 8.5381012 -0.00631714 C10.64893659 -0.00699883 12.75977408 -0.00514531 14.87060547 -0.00097656 C18.02845291 0.00427577 21.18615172 -0.00087103 24.34399414 -0.00732422 C37.14708926 -0.01110239 49.88310614 0.34929447 62.66235352 1.12939453 C62.66235352 1.45939453 62.66235352 1.78939453 62.66235352 2.12939453 C58.05918668 2.86530617 53.65248365 3.25214726 48.99267578 3.24291992 C47.71187637 3.24284439 46.43107697 3.24276886 45.11146545 3.24269104 C43.73389649 3.23758598 42.35632792 3.23237001 40.97875977 3.22705078 C39.55386912 3.22518313 38.12897783 3.22376087 36.7040863 3.22276306 C32.97395012 3.21896519 29.24385356 3.20915855 25.51373291 3.19805908 C21.69934627 3.18778594 17.88495316 3.18325285 14.07055664 3.17822266 C6.60113764 3.16753355 -0.86824885 3.15049034 -8.33764648 3.12939453 C-6.59322672 -0.35944501 -3.50290349 0.00362893 0 0 Z " fill="#A1B9C6" transform="translate(488.337646484375,620.87060546875)"/>
<path d="M0 0 C0.95334229 -0.01289063 1.90668457 -0.02578125 2.88891602 -0.0390625 C4.21234009 -0.04099609 4.21234009 -0.04099609 5.5625 -0.04296875 C6.32691406 -0.04707764 7.09132813 -0.05118652 7.87890625 -0.05541992 C10.28382133 0.22000486 11.91164768 0.99267598 14 2.1875 C13 3.1875 13 3.1875 10.79173279 3.30775452 C9.81688431 3.30553391 8.84203583 3.30331329 7.83764648 3.30102539 C6.73658066 3.30094986 5.63551483 3.30087433 4.50108337 3.30079651 C3.3031868 3.29563522 2.10529022 3.29047394 0.87109375 3.28515625 C-0.34827377 3.2837413 -1.5676413 3.28232635 -2.82395935 3.28086853 C-6.7368307 3.27524967 -10.64964581 3.26269396 -14.5625 3.25 C-17.20768147 3.24498743 -19.85286383 3.2404241 -22.49804688 3.23632812 C-28.99871726 3.22527411 -35.49935461 3.20851764 -42 3.1875 C-41.67 2.5275 -41.34 1.8675 -41 1.1875 C-27.33801478 0.61881779 -13.67476963 0.0890212 0 0 Z " fill="#162939" transform="translate(461,493.8125)"/>
<path d="M0 0 C5.072007 -0.04942365 10.14387394 -0.08573068 15.21606445 -0.10986328 C16.94167523 -0.11992326 18.66726895 -0.13357276 20.39282227 -0.15087891 C22.8726014 -0.17512754 25.35215523 -0.18648301 27.83203125 -0.1953125 C28.60400345 -0.20563507 29.37597565 -0.21595764 30.17134094 -0.22659302 C33.99281476 -0.22739422 35.74136107 -0.17242595 39 2 C38.67 2.66 38.34 3.32 38 4 C37.05125 3.95875 36.1025 3.9175 35.125 3.875 C31.89755144 3.65026182 31.89755144 3.65026182 30 6 C27.8359375 6.1953125 27.8359375 6.1953125 25.375 6.125 C24.55773437 6.10695313 23.74046875 6.08890625 22.8984375 6.0703125 C22.27195312 6.04710937 21.64546875 6.02390625 21 6 C21 5.67 21 5.34 21 5 C22.32 4.67 23.64 4.34 25 4 C20.05 4 15.1 4 10 4 C10 3.67 10 3.34 10 3 C13.3 2.67 16.6 2.34 20 2 C13.4 1.67 6.8 1.34 0 1 C0 0.67 0 0.34 0 0 Z " fill="#3A515F" transform="translate(444,569)"/>
<path d="M0 0 C3.30894459 0.27758124 6.61770071 0.44696305 9.93359375 0.62109375 C13 1 13 1 16 3 C4.45 3 -7.1 3 -19 3 C-19.33 2.01 -19.66 1.02 -20 0 C-5.24590164 -2.62295082 -5.24590164 -2.62295082 0 0 Z " fill="#193142" transform="translate(496,495)"/>
<path d="M0 0 C3.79165074 -0.0289337 7.58327327 -0.04677601 11.375 -0.0625 C12.45523438 -0.07087891 13.53546875 -0.07925781 14.6484375 -0.08789062 C16.1953125 -0.09272461 16.1953125 -0.09272461 17.7734375 -0.09765625 C18.72653809 -0.10289307 19.67963867 -0.10812988 20.66162109 -0.11352539 C23 0 23 0 25 1 C25 1.66 25 2.32 25 3 C7.20226923 3.25465752 7.20226923 3.25465752 1 2 C0.67 1.34 0.34 0.68 0 0 Z " fill="#A3BBC7" transform="translate(698,621)"/>
<path d="M0 0 C0.33 0 0.66 0 1 0 C1 13.2 1 26.4 1 40 C-1.31509559 36.52735662 -1.62582455 34.11592992 -2 30 C-1.67 29.34 -1.34 28.68 -1 28 C-0.84558791 25.89625004 -0.75007361 23.78804881 -0.68359375 21.6796875 C-0.64169922 20.42285156 -0.59980469 19.16601562 -0.55664062 17.87109375 C-0.51732422 16.55238281 -0.47800781 15.23367187 -0.4375 13.875 C-0.39430488 12.53514249 -0.35069027 11.19529844 -0.30664062 9.85546875 C-0.20029019 6.57042185 -0.09826192 3.28529719 0 0 Z " fill="#EEB02D" transform="translate(549,240)"/>
<path d="M0 0 C5.80610616 -0.09298035 11.27244606 -0.04137344 17 1 C19.33302989 1.03762951 21.66713319 1.04665734 24 1 C23.67 1.66 23.34 2.32 23 3 C21.07421875 3.44921875 21.07421875 3.44921875 18.6875 3.6875 C17.51767578 3.81705078 17.51767578 3.81705078 16.32421875 3.94921875 C14.00712895 3.99984424 12.20712606 3.67173402 10 3 C10 2.34 10 1.68 10 1 C9.236875 1.33 8.47375 1.66 7.6875 2 C5 3 5 3 2 3 C2 2.34 2 1.68 2 1 C1.34 0.67 0.68 0.34 0 0 Z " fill="#526875" transform="translate(390,572)"/>
<path d="M0 0 C3.9166043 -0.0580966 7.83309763 -0.09362893 11.75 -0.125 C12.86117187 -0.14175781 13.97234375 -0.15851563 15.1171875 -0.17578125 C16.72207031 -0.18544922 16.72207031 -0.18544922 18.359375 -0.1953125 C19.34389648 -0.20578613 20.32841797 -0.21625977 21.34277344 -0.22705078 C24.05973111 0.00510382 25.68112513 0.60963727 28 2 C26.34385343 2.38218767 24.67542976 2.71395102 23 3 C22.67 2.67 22.34 2.34 22 2 C19.98035801 1.92755947 17.95832876 1.91622812 15.9375 1.9375 C14.83277344 1.94652344 13.72804688 1.95554687 12.58984375 1.96484375 C11.73519531 1.97644531 10.88054688 1.98804688 10 2 C10 2.33 10 2.66 10 3 C2 3 2 3 -1 2 C-0.67 1.34 -0.34 0.68 0 0 Z " fill="#BDB087" transform="translate(549,429)"/>
<path d="M0 0 C2.77109307 -0.05392397 5.54113818 -0.09363455 8.3125 -0.125 C9.09818359 -0.14175781 9.88386719 -0.15851563 10.69335938 -0.17578125 C11.45068359 -0.18222656 12.20800781 -0.18867188 12.98828125 -0.1953125 C13.68477783 -0.20578613 14.38127441 -0.21625977 15.09887695 -0.22705078 C17 0 17 0 20 2 C13.26188501 3.41030314 6.80977041 2.66561666 0 2 C0 1.34 0 0.68 0 0 Z " fill="#364754" transform="translate(496,494)"/>
<path d="M0 0 C0.98120464 3.05263664 0.98120464 4.94736336 0 8 C0.66 8.33 1.32 8.66 2 9 C2 9.66 2 10.32 2 11 C2.66 11.33 3.32 11.66 4 12 C2.68 12 1.36 12 0 12 C-1.875 9.875 -1.875 9.875 -3 7 C-1.8 1.8 -1.8 1.8 0 0 Z " fill="#A3BCC8" transform="translate(548,715)"/>
<path d="M0 0 C1.33597652 0.80814651 2.668725 1.62163181 4 2.4375 C4.7425 2.88996094 5.485 3.34242188 6.25 3.80859375 C6.8275 4.20175781 7.405 4.59492187 8 5 C8 5.33 8 5.66 8 6 C3.71 6 -0.58 6 -5 6 C-4.67 5.34 -4.34 4.68 -4 4 C-1.4375 3.375 -1.4375 3.375 1 3 C0.67 2.01 0.34 1.02 0 0 Z " fill="#09192B" transform="translate(429,722)"/>
<path d="M0 0 C7.26 0 14.52 0 22 0 C22 0.33 22 0.66 22 1 C16.06 1.33 10.12 1.66 4 2 C3.67 2.66 3.34 3.32 3 4 C3 3.34 3 2.68 3 2 C2.01 2 1.02 2 0 2 C0 1.34 0 0.68 0 0 Z " fill="#EFB52F" transform="translate(666,383)"/>
<path d="M0 0 C0.66 0 1.32 0 2 0 C0.63408831 3.54243452 -0.90931484 6.92627929 -2.625 10.3125 C-3.07101562 11.19550781 -3.51703125 12.07851563 -3.9765625 12.98828125 C-4.31429687 13.65214844 -4.65203125 14.31601562 -5 15 C-5.68359375 13.359375 -5.68359375 13.359375 -6 11 C-4.78515625 8.203125 -4.78515625 8.203125 -3.0625 5.25 C-2.49660156 4.26515625 -1.93070313 3.2803125 -1.34765625 2.265625 C-0.90292969 1.51796875 -0.45820312 0.7703125 0 0 Z " fill="#A3BBC8" transform="translate(575,659)"/>
<path d="M0 0 C0.66 0 1.32 0 2 0 C0.31326082 4.49797113 -1.81673892 8.72886302 -4 13 C-4.66 12.01 -5.32 11.02 -6 10 C-4.79618552 7.50638429 -3.54571278 5.31856917 -2 3 C-1.34 3 -0.68 3 0 3 C0 2.01 0 1.02 0 0 Z " fill="#314352" transform="translate(513,518)"/>
<path d="M0 0 C3.96 0 7.92 0 12 0 C12.33 0.66 12.66 1.32 13 2 C11.58566794 2.2236337 10.16832382 2.42826476 8.75 2.625 C7.96109375 2.74101563 7.1721875 2.85703125 6.359375 2.9765625 C3.67847541 3.00319395 2.27305911 2.36592084 0 1 C0 0.67 0 0.34 0 0 Z " fill="#586E7A" transform="translate(416,573)"/>
<path d="M0 0 C1 2 1 2 0.29296875 4.34765625 C-0.07183594 5.24355469 -0.43664062 6.13945312 -0.8125 7.0625 C-1.16957031 7.96097656 -1.52664063 8.85945313 -1.89453125 9.78515625 C-3 12 -3 12 -5 13 C-4.48474397 7.71862571 -2.74522883 4.42778844 0 0 Z " fill="#A1B9C4" transform="translate(679,442)"/>
<path d="M0 0 C0.66 0 1.32 0 2 0 C1.43454163 3.95820859 0.19097652 6.6659053 -2 10 C-3.39195915 5.82412255 -1.82323219 3.86525224 0 0 Z " fill="#A2BAC7" transform="translate(566,676)"/>
<path d="M0 0 C1.9375 0.625 1.9375 0.625 4 2 C4.875 4.9375 4.875 4.9375 5 8 C4.01 9.485 4.01 9.485 3 11 C2.87625 9.9275 2.7525 8.855 2.625 7.75 C2.10356064 4.62136385 1.59911746 2.66519576 0 0 Z " fill="#0F163F" transform="translate(566,353)"/>
<path d="M0 0 C0.99 0.33 1.98 0.66 3 1 C1.25 6.75 1.25 6.75 -1 9 C-1.125 2.25 -1.125 2.25 0 0 Z " fill="#283A49" transform="translate(516,509)"/>
<path d="M0 0 C0 0.66 0 1.32 0 2 C-2.97 2 -5.94 2 -9 2 C-9 1.34 -9 0.68 -9 0 C-2.25 -1.125 -2.25 -1.125 0 0 Z " fill="#122434" transform="translate(485,495)"/>
<path d="M0 0 C3.465 1.485 3.465 1.485 7 3 C5.02 3.99 5.02 3.99 3 5 C2.01 4.34 1.02 3.68 0 3 C0 2.01 0 1.02 0 0 Z " fill="#263C4C" transform="translate(381,642)"/>
<path d="M0 0 C0 3 0 3 -2 5.1875 C-2.66 5.785625 -3.32 6.38375 -4 7 C-4.66 6.67 -5.32 6.34 -6 6 C-2.25 1.125 -2.25 1.125 0 0 Z " fill="#384C5A" transform="translate(489,564)"/>
<path d="M0 0 C0.66 0 1.32 0 2 0 C2.33 0.99 2.66 1.98 3 3 C2.67 3.33 2.34 3.66 2 4 C-0.33944736 3.71269945 -2.6739143 3.38063221 -5 3 C-5 2.67 -5 2.34 -5 2 C-3.35 2 -1.7 2 0 2 C0 1.34 0 0.68 0 0 Z " fill="#F5B52D" transform="translate(576,426)"/>
<path d="M0 0 C0.66 0.66 1.32 1.32 2 2 C1.67 2.66 1.34 3.32 1 4 C0.34 3.67 -0.32 3.34 -1 3 C-0.67 2.01 -0.34 1.02 0 0 Z " fill="#8DA6B1" transform="translate(461,640)"/>
<path d="M0 0 C0.99 0 1.98 0 3 0 C3 0.66 3 1.32 3 2 C2.01 2 1.02 2 0 2 C0 1.34 0 0.68 0 0 Z " fill="#AEC5CF" transform="translate(544,726)"/>
<path d="M0 0 C1.65 0 3.3 0 5 0 C5 0.33 5 0.66 5 1 C3.35 1 1.7 1 0 1 C0 0.67 0 0.34 0 0 Z " fill="#B1C8D3" transform="translate(599,509)"/>
<path d="M0 0 C0.99 0.495 0.99 0.495 2 1 C2 1.66 2 2.32 2 3 C1.34 3 0.68 3 0 3 C0 2.01 0 1.02 0 0 Z " fill="#E7C359" transform="translate(656,381)"/>
<path d="M0 0 C0.33 0.66 0.66 1.32 1 2 C0.01 1.67 -0.98 1.34 -2 1 C-1.34 0.67 -0.68 0.34 0 0 Z " fill="#596F7D" transform="translate(432,642)"/>
<path d="M0 0 C0.66 0.66 1.32 1.32 2 2 C1.01 1.67 0.02 1.34 -1 1 C-0.67 0.67 -0.34 0.34 0 0 Z " fill="#4B6270" transform="translate(398,574)"/>
<path d="M0 0 C4 1 4 1 4 1 Z " fill="#B3C8D4" transform="translate(719,509)"/>
<path d="M0 0 C4 1 4 1 4 1 Z " fill="#F0C047" transform="translate(562,305)"/>
<path d="M0 0 C1 4 1 4 1 4 Z " fill="#D6B457" transform="translate(448,272)"/>
<path d="M0 0 C3 1 3 1 3 1 Z " fill="#B6CCD5" transform="translate(680,619)"/>
<path d="M0 0 C3 1 3 1 3 1 Z " fill="#B6CBD6" transform="translate(664,619)"/>
<path d="M0 0 C3 1 3 1 3 1 Z " fill="#B7CCD7" transform="translate(648,619)"/>
<path d="" fill="#3A4F5D" transform="translate(0,0)"/>
<path d="M0 0 C3 1 3 1 3 1 Z " fill="#687D89" transform="translate(458,574)"/>
<path d="M0 0 C0.66 0 1.32 0 2 0 C1.67 0.66 1.34 1.32 1 2 C0.67 1.34 0.34 0.68 0 0 Z " fill="#465B69" transform="translate(389,574)"/>
<path d="M0 0 C3 1 3 1 3 1 Z " fill="#B3C8D3" transform="translate(759,509)"/>
<path d="M0 0 C3 1 3 1 3 1 Z " fill="#B3C8D3" transform="translate(751,509)"/>
<path d="M0 0 C3 1 3 1 3 1 Z " fill="#B3C8D3" transform="translate(743,509)"/>
<path d="M0 0 C3 1 3 1 3 1 Z " fill="#B3C9D3" transform="translate(671,509)"/>
<path d="M0 0 C3 1 3 1 3 1 Z " fill="#B2C8D3" transform="translate(575,509)"/>
<path d="M0 0 C0.66 0.66 1.32 1.32 2 2 C1.34 2 0.68 2 0 2 C0 1.34 0 0.68 0 0 Z " fill="#3E5464" transform="translate(382,488)"/>
<path d="M0 0 C3 1 3 1 3 1 Z " fill="#F0C04B" transform="translate(528,312)"/>
<path d="M0 0 C2 1 2 1 2 1 Z " fill="#B2C6CF" transform="translate(630,730)"/>
<path d="" fill="#AFC4CF" transform="translate(0,0)"/>
<path d="" fill="#3B5260" transform="translate(0,0)"/>
<path d="" fill="#3D525F" transform="translate(0,0)"/>
<path d="" fill="#3B515D" transform="translate(0,0)"/>
<path d="" fill="#B4C9D3" transform="translate(0,0)"/>
<path d="M0 0 C2 1 2 1 2 1 Z " fill="#B5CAD6" transform="translate(600,619)"/>
<path d="M0 0 C2 1 2 1 2 1 Z " fill="#B4CAD5" transform="translate(520,619)"/>
<path d="M0 0 C2 1 2 1 2 1 Z " fill="#B2C9D2" transform="translate(731,606)"/>
<path d="" fill="#3B4F5D" transform="translate(0,0)"/>
<path d="" fill="#B3C9D3" transform="translate(0,0)"/>
<path d="M0 0 C2 1 2 1 2 1 Z " fill="#556C78" transform="translate(414,574)"/>
<path d="" fill="#B0C5D1" transform="translate(0,0)"/>
<path d="" fill="#394D5C" transform="translate(0,0)"/>
<path d="" fill="#B0C5D0" transform="translate(0,0)"/>
<path d="M0 0 C2 1 2 1 2 1 Z " fill="#B3C8D3" transform="translate(727,509)"/>
<path d="M0 0 C2 1 2 1 2 1 Z " fill="#B2C8D2" transform="translate(711,509)"/>
<path d="M0 0 C2 1 2 1 2 1 Z " fill="#B3C9D4" transform="translate(695,509)"/>
<path d="M0 0 C2 1 2 1 2 1 Z " fill="#B2C9D3" transform="translate(615,509)"/>
<path d="M0 0 C2 1 2 1 2 1 Z " fill="#B1C8D4" transform="translate(593,509)"/>
<path d="" fill="#384D5C" transform="translate(0,0)"/>
<path d="" fill="#374C59" transform="translate(0,0)"/>
<path d="" fill="#B0C4CB" transform="translate(0,0)"/>
<path d="" fill="#B0C3CC" transform="translate(0,0)"/>
<path d="" fill="#394E5B" transform="translate(0,0)"/>
<path d="M0 0 C2 1 2 1 2 1 Z " fill="#CABB8A" transform="translate(569,431)"/>
<path d="M0 0 C2 1 2 1 2 1 Z " fill="#BFB181" transform="translate(566,431)"/>
<path d="M0 0 C2 1 2 1 2 1 Z " fill="#BFAF80" transform="translate(563,431)"/>
<path d="M0 0 C2 1 2 1 2 1 Z " fill="#BEC8C3" transform="translate(703,421)"/>
<path d="M0 0 C2 1 2 1 2 1 Z " fill="#CEC6A2" transform="translate(632,421)"/>
<path d="" fill="#374E5C" transform="translate(0,0)"/>
<path d="" fill="#384E5B" transform="translate(0,0)"/>
<path d="M0 0 C2 1 2 1 2 1 Z " fill="#F2C14A" transform="translate(544,307)"/>
<path d="M0 0 C2 1 2 1 2 1 Z " fill="#E4BE56" transform="translate(641,272)"/>
<path d="" fill="#E6BE53" transform="translate(0,0)"/>
<path d="M0 0 C2 1 2 1 2 1 Z " fill="#D8B65B" transform="translate(558,226)"/>
<path d="" fill="#616566" transform="translate(0,0)"/>
<path d="" fill="#B0C7D1" transform="translate(0,0)"/>
<path d="" fill="#B4C6D1" transform="translate(0,0)"/>
<path d="" fill="#B2C7D0" transform="translate(0,0)"/>
<path d="" fill="#B2C5CF" transform="translate(0,0)"/>
<path d="" fill="#B0C6CF" transform="translate(0,0)"/>
<path d="" fill="#AFC5CE" transform="translate(0,0)"/>
<path d="" fill="#ADC4CE" transform="translate(0,0)"/>
<path d="" fill="#485D67" transform="translate(0,0)"/>
<path d="" fill="#B0C8D0" transform="translate(0,0)"/>
<path d="" fill="#B1C7D1" transform="translate(0,0)"/>
<path d="" fill="#465B68" transform="translate(0,0)"/>
<path d="" fill="#B1C8D4" transform="translate(0,0)"/>
<path d="" fill="#B1C6D1" transform="translate(0,0)"/>
<path d="" fill="#405661" transform="translate(0,0)"/>
<path d="" fill="#435764" transform="translate(0,0)"/>
<path d="" fill="#B0C6D0" transform="translate(0,0)"/>
<path d="" fill="#3E5662" transform="translate(0,0)"/>
<path d="" fill="#3E5463" transform="translate(0,0)"/>
<path d="" fill="#3D5462" transform="translate(0,0)"/>
<path d="" fill="#B0C4CD" transform="translate(0,0)"/>
<path d="" fill="#B1C5CF" transform="translate(0,0)"/>
<path d="" fill="#B1C9D3" transform="translate(0,0)"/>
<path d="" fill="#3C5260" transform="translate(0,0)"/>
<path d="" fill="#AEC3CF" transform="translate(0,0)"/>
<path d="" fill="#B1C9D2" transform="translate(0,0)"/>
<path d="" fill="#AFC5CE" transform="translate(0,0)"/>
<path d="" fill="#B0C7D3" transform="translate(0,0)"/>
<path d="" fill="#3C5662" transform="translate(0,0)"/>
<path d="" fill="#B0C5CF" transform="translate(0,0)"/>
<path d="" fill="#B1C5D1" transform="translate(0,0)"/>
<path d="" fill="#3B525E" transform="translate(0,0)"/>
<path d="" fill="#3E5562" transform="translate(0,0)"/>
<path d="" fill="#B4CAD5" transform="translate(0,0)"/>
<path d="" fill="#AFC3CA" transform="translate(0,0)"/>
<path d="" fill="#3A525F" transform="translate(0,0)"/>
<path d="" fill="#B2C8D3" transform="translate(0,0)"/>
<path d="" fill="#B2C8D2" transform="translate(0,0)"/>
<path d="" fill="#AEC4CF" transform="translate(0,0)"/>
<path d="" fill="#394F5E" transform="translate(0,0)"/>
<path d="" fill="#3A505E" transform="translate(0,0)"/>
<path d="" fill="#778F9B" transform="translate(0,0)"/>
<path d="" fill="#6F8793" transform="translate(0,0)"/>
<path d="" fill="#6C8390" transform="translate(0,0)"/>
<path d="" fill="#617885" transform="translate(0,0)"/>
<path d="" fill="#5F7784" transform="translate(0,0)"/>
<path d="" fill="#5E7682" transform="translate(0,0)"/>
<path d="" fill="#5B727E" transform="translate(0,0)"/>
<path d="" fill="#526776" transform="translate(0,0)"/>
<path d="" fill="#4E6471" transform="translate(0,0)"/>
<path d="" fill="#4E6573" transform="translate(0,0)"/>
<path d="" fill="#495F6F" transform="translate(0,0)"/>
<path d="" fill="#435B69" transform="translate(0,0)"/>
<path d="" fill="#455B69" transform="translate(0,0)"/>
<path d="" fill="#87A0AC" transform="translate(0,0)"/>
<path d="" fill="#69828D" transform="translate(0,0)"/>
<path d="" fill="#405665" transform="translate(0,0)"/>
<path d="" fill="#B1C4CC" transform="translate(0,0)"/>
<path d="" fill="#B2CAD2" transform="translate(0,0)"/>
<path d="" fill="#4E6673" transform="translate(0,0)"/>
<path d="" fill="#3E5464" transform="translate(0,0)"/>
<path d="" fill="#607985" transform="translate(0,0)"/>
<path d="" fill="#9AB0B9" transform="translate(0,0)"/>
<path d="" fill="#B5CAD5" transform="translate(0,0)"/>
<path d="" fill="#B2C7D1" transform="translate(0,0)"/>
<path d="" fill="#9DB5BF" transform="translate(0,0)"/>
<path d="" fill="#B4C8D4" transform="translate(0,0)"/>
<path d="" fill="#3A515D" transform="translate(0,0)"/>
<path d="" fill="#B2C6CF" transform="translate(0,0)"/>
<path d="" fill="#B2C7D3" transform="translate(0,0)"/>
<path d="" fill="#B3C9D2" transform="translate(0,0)"/>
<path d="" fill="#B4CAD4" transform="translate(0,0)"/>
<path d="" fill="#3B505C" transform="translate(0,0)"/>
<path d="" fill="#A8BEC8" transform="translate(0,0)"/>
<path d="" fill="#B7CBD6" transform="translate(0,0)"/>
<path d="" fill="#B5CDD5" transform="translate(0,0)"/>
<path d="" fill="#B8CBD7" transform="translate(0,0)"/>
<path d="" fill="#B6CCD6" transform="translate(0,0)"/>
<path d="" fill="#B7CCD7" transform="translate(0,0)"/>
<path d="" fill="#B7CBD6" transform="translate(0,0)"/>
<path d="" fill="#B5CDD7" transform="translate(0,0)"/>
<path d="" fill="#B8CDD7" transform="translate(0,0)"/>
<path d="" fill="#B8CED7" transform="translate(0,0)"/>
<path d="" fill="#B8CCD7" transform="translate(0,0)"/>
<path d="" fill="#B7CCD7" transform="translate(0,0)"/>
<path d="" fill="#B6CAD6" transform="translate(0,0)"/>
<path d="" fill="#B4CAD7" transform="translate(0,0)"/>
<path d="" fill="#B3CAD5" transform="translate(0,0)"/>
<path d="" fill="#B3C9D5" transform="translate(0,0)"/>
<path d="" fill="#B4CBD5" transform="translate(0,0)"/>
<path d="" fill="#B6CAD5" transform="translate(0,0)"/>
<path d="" fill="#B7CAD6" transform="translate(0,0)"/>
<path d="" fill="#B2C9D5" transform="translate(0,0)"/>
<path d="" fill="#B4C8D5" transform="translate(0,0)"/>
<path d="" fill="#B3CAD3" transform="translate(0,0)"/>
<path d="" fill="#AEC4CE" transform="translate(0,0)"/>
<path d="" fill="#B3C7D3" transform="translate(0,0)"/>
<path d="" fill="#B1CAD2" transform="translate(0,0)"/>
<path d="" fill="#B4C7D0" transform="translate(0,0)"/>
<path d="" fill="#3A505E" transform="translate(0,0)"/>
<path d="" fill="#3A505D" transform="translate(0,0)"/>
<path d="" fill="#3D525E" transform="translate(0,0)"/>
<path d="" fill="#B2C7D2" transform="translate(0,0)"/>
<path d="" fill="#B0C6D0" transform="translate(0,0)"/>
<path d="" fill="#B3C9D3" transform="translate(0,0)"/>
<path d="" fill="#B4C8D3" transform="translate(0,0)"/>
<path d="" fill="#B2C8D2" transform="translate(0,0)"/>
<path d="" fill="#415867" transform="translate(0,0)"/>
<path d="" fill="#3A4F60" transform="translate(0,0)"/>
<path d="" fill="#B3C6D2" transform="translate(0,0)"/>
<path d="" fill="#8296A2" transform="translate(0,0)"/>
<path d="" fill="#6B838E" transform="translate(0,0)"/>
<path d="" fill="#3D515F" transform="translate(0,0)"/>
<path d="" fill="#7A8F97" transform="translate(0,0)"/>
<path d="" fill="#69808B" transform="translate(0,0)"/>
<path d="" fill="#425967" transform="translate(0,0)"/>
<path d="" fill="#37505C" transform="translate(0,0)"/>
<path d="" fill="#768B95" transform="translate(0,0)"/>
<path d="" fill="#394F5B" transform="translate(0,0)"/>
<path d="" fill="#B3C8D2" transform="translate(0,0)"/>
<path d="" fill="#B2C7D2" transform="translate(0,0)"/>
<path d="" fill="#98ACB9" transform="translate(0,0)"/>
<path d="" fill="#384F5C" transform="translate(0,0)"/>
<path d="" fill="#93AAB4" transform="translate(0,0)"/>
<path d="" fill="#B6CAD3" transform="translate(0,0)"/>
<path d="" fill="#B5C9D3" transform="translate(0,0)"/>
<path d="" fill="#7C919D" transform="translate(0,0)"/>
<path d="" fill="#758C96" transform="translate(0,0)"/>
<path d="" fill="#738994" transform="translate(0,0)"/>
<path d="" fill="#768B96" transform="translate(0,0)"/>
<path d="" fill="#6B7F8D" transform="translate(0,0)"/>
<path d="" fill="#AFC3CE" transform="translate(0,0)"/>
<path d="" fill="#95AAB4" transform="translate(0,0)"/>
<path d="" fill="#374E5C" transform="translate(0,0)"/>
<path d="" fill="#B0C3CF" transform="translate(0,0)"/>
<path d="" fill="#B4CAD3" transform="translate(0,0)"/>
<path d="" fill="#95AAB4" transform="translate(0,0)"/>
<path d="" fill="#B0C2CF" transform="translate(0,0)"/>
<path d="" fill="#B1C6D2" transform="translate(0,0)"/>
<path d="" fill="#738792" transform="translate(0,0)"/>
<path d="" fill="#374D5B" transform="translate(0,0)"/>
<path d="" fill="#758998" transform="translate(0,0)"/>
<path d="" fill="#95ACB6" transform="translate(0,0)"/>
<path d="" fill="#B3C8D2" transform="translate(0,0)"/>
<path d="" fill="#9FB6C1" transform="translate(0,0)"/>
<path d="" fill="#A1B8C1" transform="translate(0,0)"/>
<path d="" fill="#B5CAD3" transform="translate(0,0)"/>
<path d="" fill="#B4C8D5" transform="translate(0,0)"/>
<path d="" fill="#B4C8D4" transform="translate(0,0)"/>
<path d="" fill="#384D5C" transform="translate(0,0)"/>
<path d="" fill="#738895" transform="translate(0,0)"/>
<path d="" fill="#B3C7D3" transform="translate(0,0)"/>
<path d="" fill="#B3C8D4" transform="translate(0,0)"/>
<path d="" fill="#B3C8D2" transform="translate(0,0)"/>
<path d="" fill="#B2C8D4" transform="translate(0,0)"/>
<path d="" fill="#B4C9D3" transform="translate(0,0)"/>
<path d="" fill="#B3C8D4" transform="translate(0,0)"/>
<path d="" fill="#B2C9D6" transform="translate(0,0)"/>
<path d="" fill="#B2C7D2" transform="translate(0,0)"/>
<path d="" fill="#B4C8D3" transform="translate(0,0)"/>
<path d="" fill="#B3C8D3" transform="translate(0,0)"/>
<path d="" fill="#B4C9D2" transform="translate(0,0)"/>
<path d="" fill="#B2C9D4" transform="translate(0,0)"/>
<path d="" fill="#B1C9D2" transform="translate(0,0)"/>
<path d="" fill="#B2C8D2" transform="translate(0,0)"/>
<path d="" fill="#B1C7D2" transform="translate(0,0)"/>
<path d="" fill="#B1C8D2" transform="translate(0,0)"/>
<path d="" fill="#B0C4CE" transform="translate(0,0)"/>
<path d="" fill="#B1C6D0" transform="translate(0,0)"/>
<path d="" fill="#7C929C" transform="translate(0,0)"/>
<path d="" fill="#778C96" transform="translate(0,0)"/>
<path d="" fill="#516774" transform="translate(0,0)"/>
<path d="" fill="#3E5665" transform="translate(0,0)"/>
<path d="" fill="#384E5B" transform="translate(0,0)"/>
<path d="" fill="#384D5B" transform="translate(0,0)"/>
<path d="" fill="#B2C6D2" transform="translate(0,0)"/>
<path d="" fill="#3D5463" transform="translate(0,0)"/>
<path d="" fill="#384D5B" transform="translate(0,0)"/>
<path d="" fill="#B0C3CF" transform="translate(0,0)"/>
<path d="" fill="#B2C6CF" transform="translate(0,0)"/>
<path d="" fill="#B0C5CC" transform="translate(0,0)"/>
<path d="" fill="#AFC6CF" transform="translate(0,0)"/>
<path d="" fill="#B2C2CD" transform="translate(0,0)"/>
<path d="" fill="#B1C7CF" transform="translate(0,0)"/>
<path d="" fill="#394E5F" transform="translate(0,0)"/>
<path d="" fill="#B1C8D2" transform="translate(0,0)"/>
<path d="" fill="#384E5C" transform="translate(0,0)"/>
<path d="" fill="#B3C8D1" transform="translate(0,0)"/>
<path d="" fill="#A8BBC1" transform="translate(0,0)"/>
<path d="" fill="#364D5A" transform="translate(0,0)"/>
<path d="" fill="#364E5A" transform="translate(0,0)"/>
<path d="" fill="#ACB9BD" transform="translate(0,0)"/>
<path d="" fill="#374F5B" transform="translate(0,0)"/>
<path d="" fill="#B3C7D0" transform="translate(0,0)"/>
<path d="" fill="#ADBABB" transform="translate(0,0)"/>
<path d="" fill="#AEB8B8" transform="translate(0,0)"/>
<path d="" fill="#364E5B" transform="translate(0,0)"/>
<path d="" fill="#B2C5D0" transform="translate(0,0)"/>
<path d="" fill="#AEB7B8" transform="translate(0,0)"/>
<path d="" fill="#ABB6B3" transform="translate(0,0)"/>
<path d="" fill="#B3C7D1" transform="translate(0,0)"/>
<path d="" fill="#394E5C" transform="translate(0,0)"/>
<path d="" fill="#B4C7CF" transform="translate(0,0)"/>
<path d="" fill="#B6C6CC" transform="translate(0,0)"/>
<path d="" fill="#3B5360" transform="translate(0,0)"/>
<path d="" fill="#B7C8CE" transform="translate(0,0)"/>
<path d="" fill="#C4B793" transform="translate(0,0)"/>
<path d="" fill="#3E5463" transform="translate(0,0)"/>
<path d="" fill="#384F5B" transform="translate(0,0)"/>
<path d="" fill="#BBC5C4" transform="translate(0,0)"/>
<path d="" fill="#BFCAC9" transform="translate(0,0)"/>
<path d="" fill="#B6C6C9" transform="translate(0,0)"/>
<path d="" fill="#B9C8CD" transform="translate(0,0)"/>
<path d="" fill="#C1C7C1" transform="translate(0,0)"/>
<path d="" fill="#C5C6B3" transform="translate(0,0)"/>
<path d="" fill="#C8C6AF" transform="translate(0,0)"/>
<path d="" fill="#CDC8A3" transform="translate(0,0)"/>
<path d="" fill="#D9CA9C" transform="translate(0,0)"/>
<path d="" fill="#D7C891" transform="translate(0,0)"/>
<path d="" fill="#D9C68D" transform="translate(0,0)"/>
<path d="" fill="#374E5D" transform="translate(0,0)"/>
<path d="" fill="#384F5C" transform="translate(0,0)"/>
<path d="" fill="#384F5C" transform="translate(0,0)"/>
<path d="" fill="#EAC55E" transform="translate(0,0)"/>
<path d="" fill="#E8C05B" transform="translate(0,0)"/>
<path d="" fill="#374F5C" transform="translate(0,0)"/>
<path d="" fill="#EFC359" transform="translate(0,0)"/>
<path d="" fill="#EFC352" transform="translate(0,0)"/>
<path d="" fill="#E0C36B" transform="translate(0,0)"/>
<path d="" fill="#384F5D" transform="translate(0,0)"/>
<path d="" fill="#3B515E" transform="translate(0,0)"/>
<path d="" fill="#E1C272" transform="translate(0,0)"/>
<path d="" fill="#F0C04C" transform="translate(0,0)"/>
<path d="" fill="#3B515F" transform="translate(0,0)"/>
<path d="" fill="#3D515C" transform="translate(0,0)"/>
<path d="" fill="#DBC371" transform="translate(0,0)"/>
<path d="" fill="#E4C35F" transform="translate(0,0)"/>
<path d="" fill="#E6C55E" transform="translate(0,0)"/>
<path d="" fill="#A08956" transform="translate(0,0)"/>
<path d="" fill="#D4AC4D" transform="translate(0,0)"/>
<path d="" fill="#D8B04A" transform="translate(0,0)"/>
<path d="" fill="#E4B74A" transform="translate(0,0)"/>
<path d="" fill="#EEC34B" transform="translate(0,0)"/>
<path d="" fill="#EDBC49" transform="translate(0,0)"/>
<path d="" fill="#EDC050" transform="translate(0,0)"/>
<path d="" fill="#F1C24B" transform="translate(0,0)"/>
<path d="" fill="#EFBF4B" transform="translate(0,0)"/>
<path d="" fill="#E1B74D" transform="translate(0,0)"/>
<path d="" fill="#DEB650" transform="translate(0,0)"/>
<path d="" fill="#DEB74F" transform="translate(0,0)"/>
<path d="" fill="#F0BF4B" transform="translate(0,0)"/>
<path d="" fill="#F0C14A" transform="translate(0,0)"/>
<path d="" fill="#DFB851" transform="translate(0,0)"/>
<path d="" fill="#ECC04F" transform="translate(0,0)"/>
<path d="" fill="#E7C052" transform="translate(0,0)"/>
<path d="" fill="#EBC158" transform="translate(0,0)"/>
<path d="" fill="#EABE50" transform="translate(0,0)"/>
<path d="" fill="#E0B954" transform="translate(0,0)"/>
<path d="" fill="#E0BA56" transform="translate(0,0)"/>
<path d="" fill="#EDC14E" transform="translate(0,0)"/>
<path d="" fill="#E5BB53" transform="translate(0,0)"/>
<path d="" fill="#E4BB55" transform="translate(0,0)"/>
<path d="" fill="#ECC251" transform="translate(0,0)"/>
<path d="" fill="#EBBF4E" transform="translate(0,0)"/>
<path d="" fill="#D6B758" transform="translate(0,0)"/>
<path d="" fill="#E5BD53" transform="translate(0,0)"/>
<path d="" fill="#ECC04F" transform="translate(0,0)"/>
<path d="" fill="#EABF4F" transform="translate(0,0)"/>
<path d="" fill="#ECBF52" transform="translate(0,0)"/>
<path d="" fill="#E2BB56" transform="translate(0,0)"/>
<path d="" fill="#E2BE56" transform="translate(0,0)"/>
<path d="" fill="#D9B95C" transform="translate(0,0)"/>
<path d="" fill="#EBC050" transform="translate(0,0)"/>
<path d="" fill="#D5B45B" transform="translate(0,0)"/>
<path d="" fill="#D7B75D" transform="translate(0,0)"/>
<path d="" fill="#EBBE4F" transform="translate(0,0)"/>
<path d="" fill="#EBC051" transform="translate(0,0)"/>
<path d="" fill="#EAC052" transform="translate(0,0)"/>
<path d="" fill="#E6BD53" transform="translate(0,0)"/>
<path d="" fill="#DBB858" transform="translate(0,0)"/>
<path d="" fill="#D9B85D" transform="translate(0,0)"/>
</svg>
